M48
;DRILL file {Pcbnew (2013-jul-07)-stable} date Sat 20 Jun 2015 02:45:00 AM PDT
;FORMAT={-:-/ absolute / inch / decimal}
FMAT,2
INCH,TZ
T1C0.025
T2C0.030
T3C0.031
T4C0.032
T5C0.040
T6C0.045
T7C0.120
%
G90
G05
M72
T1
X0.695Y1.355
X1.255Y-0.235
X1.265Y0.455
X1.37Y1.565
X1.385Y0.455
X1.475Y0.675
X1.575Y1.305
X1.575Y1.205
X1.585Y1.485
X1.585Y0.485
X1.655Y1.43
X1.695Y0.845
X1.705Y0.685
X1.785Y1.43
X1.795Y0.495
X1.885Y0.485
X1.935Y0.345
X1.955Y1.035
X1.965Y0.785
X1.975Y1.205
X1.975Y1.095
X1.985Y0.895
X1.985Y0.355
X2.005Y1.245
X2.005Y0.715
X2.045Y1.285
X2.05Y1.345
X2.17Y1.195
X2.245Y1.155
X2.265Y1.035
X2.285Y1.27
X2.295Y0.905
X2.36Y0.88
X2.365Y1.2
X2.385Y0.655
X2.385Y0.465
X2.435Y1.63
X2.435Y0.365
X2.755Y0.685
X2.8Y1.27
X2.805Y0.705
X2.815Y0.805
X2.835Y0.755
X2.86Y1.465
T2
X0.95Y0.18
X0.95Y-0.02
X0.955Y1.065
X0.955Y0.865
X1.035Y1.375
X1.035Y1.275
X1.2Y0.805
X1.2Y0.705
X1.3Y1.13
X1.375Y1.13
X1.45Y1.13
X1.525Y1.13
X1.865Y0.975
X1.865Y0.775
T3
X2.495Y1.145
T4
X0.575Y0.705
X0.575Y0.605
X0.575Y0.455
X0.575Y0.355
X0.675Y0.705
X0.675Y0.605
X0.675Y0.455
X0.675Y0.355
X1.115Y0.485
X1.115Y0.385
X1.335Y0.585
X1.335Y-0.015
X1.35Y-0.22
X1.435Y0.585
X1.435Y-0.015
X1.45Y-0.22
X1.535Y0.585
X1.535Y-0.015
X1.55Y-0.22
X1.635Y0.585
X1.635Y-0.015
X1.65Y-0.22
X1.735Y0.585
X1.735Y-0.015
X1.835Y0.585
X1.835Y-0.015
X1.935Y0.585
X1.935Y-0.015
X1.95Y1.48
X1.95Y1.38
X2.035Y0.585
X2.035Y-0.015
X2.135Y0.585
X2.135Y-0.015
X2.15Y1.48
X2.235Y0.585
X2.235Y-0.015
X2.25Y1.48
X2.335Y0.585
X2.335Y-0.015
X2.35Y1.48
X2.435Y0.585
X2.435Y-0.015
X2.45Y1.48
X2.535Y0.585
X2.535Y-0.015
X2.55Y1.48
X2.635Y0.585
X2.635Y-0.015
X2.65Y1.48
T5
X2.675Y1.18
X2.675Y1.08
X2.675Y0.98
X2.775Y1.18
X2.775Y1.08
X2.775Y0.98
T6
X0.615Y1.135
X0.615Y1.035
X0.615Y0.935
X0.625Y0.135
X0.625Y0.035
X0.625Y-0.065
T7
X0.525Y1.605
X0.525Y-0.27
X2.825Y1.605
X2.825Y-0.27
T0
M30
