G04 (created by PCBNEW (2013-jul-07)-stable) date Sat 20 Jun 2015 02:51:25 AM PDT*
%MOIN*%
G04 Gerber Fmt 3.4, Leading zero omitted, Abs format*
%FSLAX34Y34*%
G01*
G70*
G90*
G04 APERTURE LIST*
%ADD10C,0.00393701*%
%ADD11C,0.071748*%
%ADD12R,0.070748X0.070748*%
%ADD13C,0.070748*%
%ADD14R,0.0748031X0.0748031*%
%ADD15C,0.075748*%
%ADD16R,0.075748X0.075748*%
%ADD17C,0.085748*%
%ADD18R,0.085748X0.085748*%
%ADD19C,0.175748*%
G04 APERTURE END LIST*
G54D10*
G54D11*
X18650Y7750D03*
X18650Y9750D03*
G54D12*
X21500Y14800D03*
G54D13*
X22500Y14800D03*
X23500Y14800D03*
X24500Y14800D03*
X25500Y14800D03*
X26500Y14800D03*
G54D12*
X11150Y4850D03*
G54D13*
X11150Y3850D03*
X19500Y13800D03*
X19500Y14800D03*
G54D12*
X6750Y6050D03*
G54D13*
X6750Y7050D03*
G54D12*
X5750Y7050D03*
G54D13*
X5750Y6050D03*
G54D12*
X5750Y3550D03*
G54D13*
X5750Y4550D03*
G54D12*
X6750Y3550D03*
G54D13*
X6750Y4550D03*
G54D14*
X24950Y11450D03*
G54D15*
X27750Y9800D03*
X26750Y9800D03*
X27750Y10800D03*
X26750Y10800D03*
X27750Y11800D03*
G54D16*
X26750Y11800D03*
G54D17*
X6150Y9350D03*
G54D18*
X6150Y10350D03*
G54D17*
X6150Y11350D03*
X6250Y-650D03*
G54D18*
X6250Y350D03*
G54D17*
X6250Y1350D03*
G54D15*
X13000Y11300D03*
X13750Y11300D03*
G54D16*
X14500Y11300D03*
G54D15*
X15250Y11300D03*
G54D13*
X13350Y-150D03*
X14350Y-150D03*
X15350Y-150D03*
X16350Y-150D03*
X17350Y-150D03*
X18350Y-150D03*
X19350Y-150D03*
X20350Y-150D03*
X21350Y-150D03*
X22350Y-150D03*
X23350Y-150D03*
X24350Y-150D03*
X25350Y-150D03*
G54D12*
X26350Y-150D03*
G54D13*
X26350Y5850D03*
X25350Y5850D03*
X24350Y5850D03*
X23350Y5850D03*
X22350Y5850D03*
X21350Y5850D03*
X20350Y5850D03*
X19350Y5850D03*
X18350Y5850D03*
X17350Y5850D03*
X16350Y5850D03*
X15350Y5850D03*
X14350Y5850D03*
X13350Y5850D03*
G54D15*
X9550Y10650D03*
G54D16*
X9550Y8650D03*
X9500Y-200D03*
G54D15*
X9500Y1800D03*
G54D16*
X10350Y12750D03*
G54D15*
X10350Y13750D03*
G54D16*
X12000Y7050D03*
G54D15*
X12000Y8050D03*
G54D19*
X5250Y-2700D03*
X5250Y16050D03*
X28250Y-2700D03*
X28250Y16050D03*
G54D13*
X16500Y-2200D03*
X15500Y-2200D03*
X14500Y-2200D03*
X13500Y-2200D03*
M02*
