G04 (created by PCBNEW (2013-jul-07)-stable) date Sat 20 Jun 2015 02:51:25 AM PDT*
%MOIN*%
G04 Gerber Fmt 3.4, Leading zero omitted, Abs format*
%FSLAX34Y34*%
G01*
G70*
G90*
G04 APERTURE LIST*
%ADD10C,0.00393701*%
%ADD11C,0.006*%
%ADD12C,0.0125*%
%ADD13C,0.008*%
%ADD14C,0.005*%
%ADD15C,0.012*%
%ADD16C,0.00590551*%
%ADD17C,0.01*%
%ADD18C,0.015*%
%ADD19C,0.0075*%
%ADD20C,0.0107*%
%ADD21C,0.01125*%
G04 APERTURE END LIST*
G54D10*
G54D11*
X24620Y9679D02*
X24302Y9361D01*
X23079Y11220D02*
X22768Y10909D01*
X24620Y9679D02*
X23079Y11220D01*
X24330Y8724D02*
X24634Y8420D01*
X22775Y7154D02*
X23072Y6857D01*
X23065Y6850D02*
X24642Y8413D01*
X20272Y9672D02*
X21799Y11213D01*
X20455Y8880D02*
X22457Y6879D01*
X21813Y11213D02*
X22103Y10923D01*
X20463Y9226D02*
X22428Y11192D01*
X24620Y9028D02*
X22471Y11178D01*
X22464Y6872D02*
X24585Y8993D01*
X20257Y8441D02*
X21827Y6872D01*
X21827Y6872D02*
X22145Y7190D01*
X20451Y8890D02*
X20451Y9215D01*
X20259Y8443D02*
X20578Y8762D01*
X20590Y9354D02*
X20270Y9673D01*
X21051Y9055D02*
G75*
G03X21051Y9055I-188J0D01*
G74*
G01*
G54D12*
X19650Y7500D02*
X19650Y10000D01*
X17650Y7500D02*
X17650Y10000D01*
X18650Y11000D02*
G75*
G03X17650Y10000I0J-1000D01*
G74*
G01*
X19650Y10000D02*
G75*
G03X18650Y11000I-1000J0D01*
G74*
G01*
X17650Y7500D02*
G75*
G03X18650Y6500I1000J0D01*
G74*
G01*
X18650Y6500D02*
G75*
G03X19650Y7500I0J1000D01*
G74*
G01*
G54D13*
X10681Y-2888D02*
X8319Y-2888D01*
X8319Y-2888D02*
X8319Y-1512D01*
X8319Y-1512D02*
X10681Y-1512D01*
X10681Y-1512D02*
X10681Y-2888D01*
X10090Y-2495D02*
X8910Y-2495D01*
X8910Y-2495D02*
X8910Y-1905D01*
X8910Y-1905D02*
X10090Y-1905D01*
X10090Y-1905D02*
X10090Y-2495D01*
X10681Y-2888D02*
X10681Y-2692D01*
X10681Y-2888D02*
X8319Y-2888D01*
X8319Y-2888D02*
X8319Y-2692D01*
X8319Y-1708D02*
X8319Y-1512D01*
X8319Y-1512D02*
X10681Y-1512D01*
X10681Y-1512D02*
X10681Y-1708D01*
X9992Y-2495D02*
X9008Y-2495D01*
X9992Y-1905D02*
X9028Y-1905D01*
G54D14*
X7550Y5550D02*
X8450Y5550D01*
X8450Y5550D02*
X8450Y6200D01*
X7550Y6900D02*
X7550Y7550D01*
X7550Y7550D02*
X8450Y7550D01*
X8450Y7550D02*
X8450Y6900D01*
X7550Y6200D02*
X7550Y5550D01*
X15450Y15300D02*
X14550Y15300D01*
X14550Y15300D02*
X14550Y14650D01*
X15450Y13950D02*
X15450Y13300D01*
X15450Y13300D02*
X14550Y13300D01*
X14550Y13300D02*
X14550Y13950D01*
X15450Y14650D02*
X15450Y15300D01*
X12950Y15300D02*
X12050Y15300D01*
X12050Y15300D02*
X12050Y14650D01*
X12950Y13950D02*
X12950Y13300D01*
X12950Y13300D02*
X12050Y13300D01*
X12050Y13300D02*
X12050Y13950D01*
X12950Y14650D02*
X12950Y15300D01*
X14200Y15300D02*
X13300Y15300D01*
X13300Y15300D02*
X13300Y14650D01*
X14200Y13950D02*
X14200Y13300D01*
X14200Y13300D02*
X13300Y13300D01*
X13300Y13300D02*
X13300Y13950D01*
X14200Y14650D02*
X14200Y15300D01*
X17000Y-1650D02*
X17000Y-750D01*
X17000Y-750D02*
X16350Y-750D01*
X15650Y-1650D02*
X15000Y-1650D01*
X15000Y-1650D02*
X15000Y-750D01*
X15000Y-750D02*
X15650Y-750D01*
X16350Y-1650D02*
X17000Y-1650D01*
X14750Y-1650D02*
X14750Y-750D01*
X14750Y-750D02*
X14100Y-750D01*
X13400Y-1650D02*
X12750Y-1650D01*
X12750Y-1650D02*
X12750Y-750D01*
X12750Y-750D02*
X13400Y-750D01*
X14100Y-1650D02*
X14750Y-1650D01*
X16500Y11450D02*
X17400Y11450D01*
X17400Y11450D02*
X17400Y12100D01*
X16500Y12800D02*
X16500Y13450D01*
X16500Y13450D02*
X17400Y13450D01*
X17400Y13450D02*
X17400Y12800D01*
X16500Y12100D02*
X16500Y11450D01*
X17800Y11450D02*
X18700Y11450D01*
X18700Y11450D02*
X18700Y12100D01*
X17800Y12800D02*
X17800Y13450D01*
X17800Y13450D02*
X18700Y13450D01*
X18700Y13450D02*
X18700Y12800D01*
X17800Y12100D02*
X17800Y11450D01*
X23300Y14000D02*
X23300Y13100D01*
X23300Y13100D02*
X23950Y13100D01*
X24650Y14000D02*
X25300Y14000D01*
X25300Y14000D02*
X25300Y13100D01*
X25300Y13100D02*
X24650Y13100D01*
X23950Y14000D02*
X23300Y14000D01*
X8400Y13450D02*
X7500Y13450D01*
X7500Y13450D02*
X7500Y12800D01*
X8400Y12100D02*
X8400Y11450D01*
X8400Y11450D02*
X7500Y11450D01*
X7500Y11450D02*
X7500Y12100D01*
X8400Y12800D02*
X8400Y13450D01*
X27550Y13100D02*
X27550Y14000D01*
X27550Y14000D02*
X26900Y14000D01*
X26200Y13100D02*
X25550Y13100D01*
X25550Y13100D02*
X25550Y14000D01*
X25550Y14000D02*
X26200Y14000D01*
X26900Y13100D02*
X27550Y13100D01*
X12200Y-950D02*
X11300Y-950D01*
X11300Y-950D02*
X11300Y-1600D01*
X12200Y-2300D02*
X12200Y-2950D01*
X12200Y-2950D02*
X11300Y-2950D01*
X11300Y-2950D02*
X11300Y-2300D01*
X12200Y-1600D02*
X12200Y-950D01*
X8400Y15750D02*
X7500Y15750D01*
X7500Y15750D02*
X7500Y15100D01*
X8400Y14400D02*
X8400Y13750D01*
X8400Y13750D02*
X7500Y13750D01*
X7500Y13750D02*
X7500Y14400D01*
X8400Y15100D02*
X8400Y15750D01*
X5700Y12550D02*
X6600Y12550D01*
X6600Y12550D02*
X6600Y13200D01*
X5700Y13900D02*
X5700Y14550D01*
X5700Y14550D02*
X6600Y14550D01*
X6600Y14550D02*
X6600Y13900D01*
X5700Y13200D02*
X5700Y12550D01*
X9450Y5050D02*
X8550Y5050D01*
X8550Y5050D02*
X8550Y4400D01*
X9450Y3700D02*
X9450Y3050D01*
X9450Y3050D02*
X8550Y3050D01*
X8550Y3050D02*
X8550Y3700D01*
X9450Y4400D02*
X9450Y5050D01*
X7550Y3050D02*
X8450Y3050D01*
X8450Y3050D02*
X8450Y3700D01*
X7550Y4400D02*
X7550Y5050D01*
X7550Y5050D02*
X8450Y5050D01*
X8450Y5050D02*
X8450Y4400D01*
X7550Y3700D02*
X7550Y3050D01*
X9450Y7550D02*
X8550Y7550D01*
X8550Y7550D02*
X8550Y6900D01*
X9450Y6200D02*
X9450Y5550D01*
X9450Y5550D02*
X8550Y5550D01*
X8550Y5550D02*
X8550Y6200D01*
X9450Y6900D02*
X9450Y7550D01*
G54D15*
X21000Y14300D02*
X21000Y15300D01*
X21000Y15300D02*
X27000Y15300D01*
X27000Y15300D02*
X27000Y14300D01*
X27000Y14300D02*
X21000Y14300D01*
X22000Y14300D02*
X22000Y15300D01*
X10650Y5350D02*
X11650Y5350D01*
X11650Y5350D02*
X11650Y3350D01*
X11650Y3350D02*
X10650Y3350D01*
X10650Y3350D02*
X10650Y5350D01*
X20000Y13300D02*
X19000Y13300D01*
X19000Y13300D02*
X19000Y15300D01*
X19000Y15300D02*
X20000Y15300D01*
X20000Y15300D02*
X20000Y13300D01*
X7250Y5550D02*
X6250Y5550D01*
X6250Y5550D02*
X6250Y7550D01*
X6250Y7550D02*
X7250Y7550D01*
X7250Y7550D02*
X7250Y5550D01*
X5250Y7550D02*
X6250Y7550D01*
X6250Y7550D02*
X6250Y5550D01*
X6250Y5550D02*
X5250Y5550D01*
X5250Y5550D02*
X5250Y7550D01*
X6250Y3050D02*
X5250Y3050D01*
X5250Y3050D02*
X5250Y5050D01*
X5250Y5050D02*
X6250Y5050D01*
X6250Y5050D02*
X6250Y3050D01*
X7250Y3050D02*
X6250Y3050D01*
X6250Y3050D02*
X6250Y5050D01*
X6250Y5050D02*
X7250Y5050D01*
X7250Y5050D02*
X7250Y3050D01*
G54D16*
X24595Y11095D02*
X24595Y11804D01*
X24595Y11804D02*
X25304Y11804D01*
X25304Y11804D02*
X25304Y11095D01*
X25304Y11095D02*
X24595Y11095D01*
G54D13*
X28250Y12300D02*
X28250Y9300D01*
X26250Y9300D02*
X26250Y12300D01*
X26250Y12300D02*
X28250Y12300D01*
X28250Y9300D02*
X26250Y9300D01*
G54D17*
X5400Y8600D02*
X5150Y8600D01*
X5150Y8600D02*
X5150Y12100D01*
X5150Y12100D02*
X5400Y12100D01*
X6900Y8600D02*
X5400Y8600D01*
X5400Y8600D02*
X5400Y12100D01*
X5400Y12100D02*
X6900Y12100D01*
X6900Y12100D02*
X6900Y8600D01*
X5500Y-1400D02*
X5250Y-1400D01*
X5250Y-1400D02*
X5250Y2100D01*
X5250Y2100D02*
X5500Y2100D01*
X7000Y-1400D02*
X5500Y-1400D01*
X5500Y-1400D02*
X5500Y2100D01*
X5500Y2100D02*
X7000Y2100D01*
X7000Y2100D02*
X7000Y-1400D01*
G54D16*
X14800Y10500D02*
X14800Y10700D01*
X14400Y10700D02*
X14800Y10700D01*
X14400Y10700D02*
X14400Y10300D01*
X14400Y10300D02*
X14800Y10300D01*
X14800Y10300D02*
X14800Y10500D01*
X14800Y10500D02*
X14600Y10500D01*
X13600Y10700D02*
X14000Y10700D01*
X13600Y10700D02*
X13600Y10300D01*
X13600Y10300D02*
X14000Y10300D01*
X14000Y10300D02*
X14000Y10500D01*
X14000Y10500D02*
X13800Y10500D01*
X13000Y10300D02*
X13000Y10700D01*
X13000Y10700D02*
X13200Y10700D01*
X13200Y10700D02*
X13200Y10500D01*
X13200Y10500D02*
X13000Y10500D01*
X13000Y10500D02*
X13200Y10300D01*
X12800Y12100D02*
X13200Y12100D01*
X13600Y12100D02*
X14000Y12100D01*
X15000Y12100D02*
X15400Y12100D01*
X15000Y11900D02*
X15400Y11900D01*
X15400Y11900D02*
X15200Y12100D01*
X15200Y12100D02*
X15000Y11900D01*
X12800Y11900D02*
X13200Y11900D01*
X13200Y11900D02*
X13000Y12100D01*
X13000Y12100D02*
X12800Y11900D01*
X13600Y11900D02*
X13800Y12100D01*
X13800Y11900D02*
X13600Y11900D01*
X13600Y11900D02*
X14000Y11900D01*
X14000Y11900D02*
X13800Y12100D01*
X13800Y11300D02*
X13800Y12300D01*
X14400Y11300D02*
X14400Y12300D01*
X13000Y11300D02*
X13000Y12300D01*
X13000Y12300D02*
X15200Y12300D01*
X15200Y12300D02*
X15200Y11300D01*
X15581Y11400D02*
G75*
G03X15581Y11400I-1581J0D01*
G74*
G01*
G54D18*
X12350Y3350D02*
X12350Y3350D01*
X12350Y3350D02*
X12850Y3350D01*
X12850Y3350D02*
X12850Y2350D01*
X12850Y2350D02*
X12350Y2350D01*
X12350Y5350D02*
X27350Y5350D01*
X27350Y5350D02*
X27350Y350D01*
X27350Y350D02*
X12350Y350D01*
X12350Y350D02*
X12350Y5350D01*
G54D16*
X11352Y9650D02*
G75*
G03X11352Y9650I-1802J0D01*
G74*
G01*
X11502Y9650D02*
G75*
G03X11502Y9650I-1952J0D01*
G74*
G01*
X11302Y800D02*
G75*
G03X11302Y800I-1802J0D01*
G74*
G01*
X11452Y800D02*
G75*
G03X11452Y800I-1952J0D01*
G74*
G01*
X11807Y13250D02*
G75*
G03X11807Y13250I-1457J0D01*
G74*
G01*
X11600Y13250D02*
G75*
G03X11600Y13250I-1250J0D01*
G74*
G01*
X13457Y7550D02*
G75*
G03X13457Y7550I-1457J0D01*
G74*
G01*
X13250Y7550D02*
G75*
G03X13250Y7550I-1250J0D01*
G74*
G01*
G54D18*
X6150Y-2700D02*
G75*
G03X6150Y-2700I-900J0D01*
G74*
G01*
X6150Y16050D02*
G75*
G03X6150Y16050I-900J0D01*
G74*
G01*
X29150Y-2700D02*
G75*
G03X29150Y-2700I-900J0D01*
G74*
G01*
X29150Y16050D02*
G75*
G03X29150Y16050I-900J0D01*
G74*
G01*
G54D15*
X17000Y-2700D02*
X17000Y-2700D01*
X17000Y-1700D02*
X17000Y-2700D01*
X17000Y-2700D02*
X17000Y-2700D01*
X17000Y-2700D02*
X13000Y-2700D01*
X13000Y-2700D02*
X13000Y-1700D01*
X13000Y-1700D02*
X17000Y-1700D01*
X16000Y-1700D02*
X16000Y-2700D01*
G54D13*
X21754Y9459D02*
X21939Y9644D01*
X21960Y9691D01*
X21949Y9735D01*
X21896Y9789D01*
X21852Y9799D01*
X21771Y9475D02*
X21727Y9486D01*
X21660Y9553D01*
X21650Y9597D01*
X21670Y9644D01*
X21704Y9677D01*
X21751Y9698D01*
X21795Y9688D01*
X21862Y9620D01*
X21906Y9610D01*
X22084Y9600D02*
X22192Y9492D01*
X22242Y9677D02*
X21939Y9374D01*
X21919Y9327D01*
X21929Y9284D01*
X21956Y9257D01*
X22377Y9543D02*
X22552Y9368D01*
X22323Y9327D01*
X22364Y9287D01*
X22374Y9243D01*
X22370Y9213D01*
X22350Y9166D01*
X22266Y9081D01*
X22219Y9061D01*
X22189Y9058D01*
X22145Y9068D01*
X22064Y9149D01*
X22054Y9193D01*
X22057Y9223D01*
X22626Y9226D02*
X22657Y9230D01*
X22700Y9220D01*
X22768Y9152D01*
X22778Y9108D01*
X22774Y9078D01*
X22754Y9031D01*
X22721Y8997D01*
X22657Y8960D01*
X22293Y8920D01*
X22468Y8745D01*
X22832Y8785D02*
X22822Y8829D01*
X22825Y8859D01*
X22845Y8906D01*
X22862Y8923D01*
X22909Y8943D01*
X22939Y8947D01*
X22983Y8937D01*
X23037Y8883D01*
X23047Y8839D01*
X23044Y8809D01*
X23024Y8762D01*
X23007Y8745D01*
X22960Y8725D01*
X22929Y8721D01*
X22886Y8731D01*
X22832Y8785D01*
X22788Y8795D01*
X22758Y8792D01*
X22710Y8772D01*
X22643Y8704D01*
X22623Y8657D01*
X22620Y8627D01*
X22630Y8583D01*
X22684Y8529D01*
X22727Y8519D01*
X22758Y8523D01*
X22805Y8543D01*
X22872Y8610D01*
X22892Y8657D01*
X22896Y8688D01*
X22886Y8731D01*
X23094Y8590D02*
X22741Y8236D01*
X23077Y8573D02*
X23121Y8563D01*
X23175Y8509D01*
X23185Y8465D01*
X23182Y8435D01*
X23162Y8388D01*
X23061Y8287D01*
X23014Y8267D01*
X22983Y8263D01*
X22939Y8273D01*
X22886Y8327D01*
X22875Y8371D01*
G54D15*
G54D14*
X8121Y6328D02*
X7821Y6328D01*
X7821Y6400D01*
X7835Y6442D01*
X7864Y6471D01*
X7892Y6485D01*
X7950Y6500D01*
X7992Y6500D01*
X8050Y6485D01*
X8078Y6471D01*
X8107Y6442D01*
X8121Y6400D01*
X8121Y6328D01*
X7850Y6614D02*
X7835Y6628D01*
X7821Y6657D01*
X7821Y6728D01*
X7835Y6757D01*
X7850Y6771D01*
X7878Y6785D01*
X7907Y6785D01*
X7950Y6771D01*
X8121Y6600D01*
X8121Y6785D01*
X14950Y14178D02*
X14850Y14321D01*
X14778Y14178D02*
X14778Y14478D01*
X14892Y14478D01*
X14921Y14464D01*
X14935Y14450D01*
X14950Y14421D01*
X14950Y14378D01*
X14935Y14350D01*
X14921Y14335D01*
X14892Y14321D01*
X14778Y14321D01*
X15221Y14478D02*
X15078Y14478D01*
X15064Y14335D01*
X15078Y14350D01*
X15107Y14364D01*
X15178Y14364D01*
X15207Y14350D01*
X15221Y14335D01*
X15235Y14307D01*
X15235Y14235D01*
X15221Y14207D01*
X15207Y14192D01*
X15178Y14178D01*
X15107Y14178D01*
X15078Y14192D01*
X15064Y14207D01*
X12450Y14178D02*
X12350Y14321D01*
X12278Y14178D02*
X12278Y14478D01*
X12392Y14478D01*
X12421Y14464D01*
X12435Y14450D01*
X12450Y14421D01*
X12450Y14378D01*
X12435Y14350D01*
X12421Y14335D01*
X12392Y14321D01*
X12278Y14321D01*
X12707Y14378D02*
X12707Y14178D01*
X12635Y14492D02*
X12564Y14278D01*
X12750Y14278D01*
X13700Y14178D02*
X13600Y14321D01*
X13528Y14178D02*
X13528Y14478D01*
X13642Y14478D01*
X13671Y14464D01*
X13685Y14450D01*
X13700Y14421D01*
X13700Y14378D01*
X13685Y14350D01*
X13671Y14335D01*
X13642Y14321D01*
X13528Y14321D01*
X13800Y14478D02*
X13985Y14478D01*
X13885Y14364D01*
X13928Y14364D01*
X13957Y14350D01*
X13971Y14335D01*
X13985Y14307D01*
X13985Y14235D01*
X13971Y14207D01*
X13957Y14192D01*
X13928Y14178D01*
X13842Y14178D01*
X13814Y14192D01*
X13800Y14207D01*
X15807Y-1292D02*
X15792Y-1307D01*
X15750Y-1321D01*
X15721Y-1321D01*
X15678Y-1307D01*
X15650Y-1278D01*
X15635Y-1250D01*
X15621Y-1192D01*
X15621Y-1150D01*
X15635Y-1092D01*
X15650Y-1064D01*
X15678Y-1035D01*
X15721Y-1021D01*
X15750Y-1021D01*
X15792Y-1035D01*
X15807Y-1050D01*
X16092Y-1321D02*
X15921Y-1321D01*
X16007Y-1321D02*
X16007Y-1021D01*
X15978Y-1064D01*
X15950Y-1092D01*
X15921Y-1107D01*
X16278Y-1021D02*
X16307Y-1021D01*
X16335Y-1035D01*
X16350Y-1050D01*
X16364Y-1078D01*
X16378Y-1135D01*
X16378Y-1207D01*
X16364Y-1264D01*
X16350Y-1292D01*
X16335Y-1307D01*
X16307Y-1321D01*
X16278Y-1321D01*
X16250Y-1307D01*
X16235Y-1292D01*
X16221Y-1264D01*
X16207Y-1207D01*
X16207Y-1135D01*
X16221Y-1078D01*
X16235Y-1050D01*
X16250Y-1035D01*
X16278Y-1021D01*
X13700Y-1292D02*
X13685Y-1307D01*
X13642Y-1321D01*
X13614Y-1321D01*
X13571Y-1307D01*
X13542Y-1278D01*
X13528Y-1250D01*
X13514Y-1192D01*
X13514Y-1150D01*
X13528Y-1092D01*
X13542Y-1064D01*
X13571Y-1035D01*
X13614Y-1021D01*
X13642Y-1021D01*
X13685Y-1035D01*
X13700Y-1050D01*
X13842Y-1321D02*
X13900Y-1321D01*
X13928Y-1307D01*
X13942Y-1292D01*
X13971Y-1250D01*
X13985Y-1192D01*
X13985Y-1078D01*
X13971Y-1050D01*
X13957Y-1035D01*
X13928Y-1021D01*
X13871Y-1021D01*
X13842Y-1035D01*
X13828Y-1050D01*
X13814Y-1078D01*
X13814Y-1150D01*
X13828Y-1178D01*
X13842Y-1192D01*
X13871Y-1207D01*
X13928Y-1207D01*
X13957Y-1192D01*
X13971Y-1178D01*
X13985Y-1150D01*
X16271Y12221D02*
X16514Y12221D01*
X16542Y12235D01*
X16557Y12250D01*
X16571Y12278D01*
X16571Y12335D01*
X16557Y12364D01*
X16542Y12378D01*
X16514Y12392D01*
X16271Y12392D01*
X16271Y12664D02*
X16271Y12607D01*
X16285Y12578D01*
X16300Y12564D01*
X16342Y12535D01*
X16400Y12521D01*
X16514Y12521D01*
X16542Y12535D01*
X16557Y12550D01*
X16571Y12578D01*
X16571Y12635D01*
X16557Y12664D01*
X16542Y12678D01*
X16514Y12692D01*
X16442Y12692D01*
X16414Y12678D01*
X16400Y12664D01*
X16385Y12635D01*
X16385Y12578D01*
X16400Y12550D01*
X16414Y12535D01*
X16442Y12521D01*
X17571Y12221D02*
X17814Y12221D01*
X17842Y12235D01*
X17857Y12250D01*
X17871Y12278D01*
X17871Y12335D01*
X17857Y12364D01*
X17842Y12378D01*
X17814Y12392D01*
X17571Y12392D01*
X17571Y12678D02*
X17571Y12535D01*
X17714Y12521D01*
X17700Y12535D01*
X17685Y12564D01*
X17685Y12635D01*
X17700Y12664D01*
X17714Y12678D01*
X17742Y12692D01*
X17814Y12692D01*
X17842Y12678D01*
X17857Y12664D01*
X17871Y12635D01*
X17871Y12564D01*
X17857Y12535D01*
X17842Y12521D01*
X24250Y12457D02*
X24235Y12442D01*
X24192Y12428D01*
X24164Y12428D01*
X24121Y12442D01*
X24092Y12471D01*
X24078Y12500D01*
X24064Y12557D01*
X24064Y12600D01*
X24078Y12657D01*
X24092Y12685D01*
X24121Y12714D01*
X24164Y12728D01*
X24192Y12728D01*
X24235Y12714D01*
X24250Y12700D01*
X24521Y12728D02*
X24378Y12728D01*
X24364Y12585D01*
X24378Y12600D01*
X24407Y12614D01*
X24478Y12614D01*
X24507Y12600D01*
X24521Y12585D01*
X24535Y12557D01*
X24535Y12485D01*
X24521Y12457D01*
X24507Y12442D01*
X24478Y12428D01*
X24407Y12428D01*
X24378Y12442D01*
X24364Y12457D01*
X8042Y12400D02*
X8057Y12385D01*
X8071Y12342D01*
X8071Y12314D01*
X8057Y12271D01*
X8028Y12242D01*
X8000Y12228D01*
X7942Y12214D01*
X7900Y12214D01*
X7842Y12228D01*
X7814Y12242D01*
X7785Y12271D01*
X7771Y12314D01*
X7771Y12342D01*
X7785Y12385D01*
X7800Y12400D01*
X7771Y12657D02*
X7771Y12600D01*
X7785Y12571D01*
X7800Y12557D01*
X7842Y12528D01*
X7900Y12514D01*
X8014Y12514D01*
X8042Y12528D01*
X8057Y12542D01*
X8071Y12571D01*
X8071Y12628D01*
X8057Y12657D01*
X8042Y12671D01*
X8014Y12685D01*
X7942Y12685D01*
X7914Y12671D01*
X7900Y12657D01*
X7885Y12628D01*
X7885Y12571D01*
X7900Y12542D01*
X7914Y12528D01*
X7942Y12514D01*
X26500Y12957D02*
X26485Y12942D01*
X26442Y12928D01*
X26414Y12928D01*
X26371Y12942D01*
X26342Y12971D01*
X26328Y13000D01*
X26314Y13057D01*
X26314Y13100D01*
X26328Y13157D01*
X26342Y13185D01*
X26371Y13214D01*
X26414Y13228D01*
X26442Y13228D01*
X26485Y13214D01*
X26500Y13200D01*
X26600Y13228D02*
X26800Y13228D01*
X26671Y12928D01*
X12371Y-2300D02*
X12371Y-2471D01*
X12371Y-2385D02*
X12071Y-2385D01*
X12114Y-2414D01*
X12142Y-2442D01*
X12157Y-2471D01*
X12071Y-2114D02*
X12071Y-2085D01*
X12085Y-2057D01*
X12100Y-2042D01*
X12128Y-2028D01*
X12185Y-2014D01*
X12257Y-2014D01*
X12314Y-2028D01*
X12342Y-2042D01*
X12357Y-2057D01*
X12371Y-2085D01*
X12371Y-2114D01*
X12357Y-2142D01*
X12342Y-2157D01*
X12314Y-2171D01*
X12257Y-2185D01*
X12185Y-2185D01*
X12128Y-2171D01*
X12100Y-2157D01*
X12085Y-2142D01*
X12071Y-2114D01*
X12371Y-1885D02*
X12071Y-1885D01*
X12371Y-1714D02*
X12200Y-1842D01*
X12071Y-1714D02*
X12242Y-1885D01*
X12371Y-1428D02*
X12371Y-1600D01*
X12371Y-1514D02*
X12071Y-1514D01*
X12114Y-1542D01*
X12142Y-1571D01*
X12157Y-1600D01*
X7142Y14628D02*
X7142Y14928D01*
X7257Y14928D01*
X7285Y14914D01*
X7300Y14900D01*
X7314Y14871D01*
X7314Y14828D01*
X7300Y14800D01*
X7285Y14785D01*
X7257Y14771D01*
X7142Y14771D01*
X7414Y14928D02*
X7485Y14628D01*
X7542Y14842D01*
X7600Y14628D01*
X7671Y14928D01*
X7957Y14628D02*
X7857Y14771D01*
X7785Y14628D02*
X7785Y14928D01*
X7900Y14928D01*
X7928Y14914D01*
X7942Y14900D01*
X7957Y14871D01*
X7957Y14828D01*
X7942Y14800D01*
X7928Y14785D01*
X7900Y14771D01*
X7785Y14771D01*
X8228Y14628D02*
X8085Y14628D01*
X8085Y14928D01*
X8328Y14785D02*
X8428Y14785D01*
X8471Y14628D02*
X8328Y14628D01*
X8328Y14928D01*
X8471Y14928D01*
X8600Y14628D02*
X8600Y14928D01*
X8671Y14928D01*
X8714Y14914D01*
X8742Y14885D01*
X8757Y14857D01*
X8771Y14800D01*
X8771Y14757D01*
X8757Y14700D01*
X8742Y14671D01*
X8714Y14642D01*
X8671Y14628D01*
X8600Y14628D01*
X6271Y13500D02*
X6128Y13400D01*
X6271Y13328D02*
X5971Y13328D01*
X5971Y13442D01*
X5985Y13471D01*
X6000Y13485D01*
X6028Y13500D01*
X6071Y13500D01*
X6100Y13485D01*
X6114Y13471D01*
X6128Y13442D01*
X6128Y13328D01*
X6271Y13785D02*
X6271Y13614D01*
X6271Y13700D02*
X5971Y13700D01*
X6014Y13671D01*
X6042Y13642D01*
X6057Y13614D01*
X8292Y4000D02*
X8307Y3985D01*
X8321Y3942D01*
X8321Y3914D01*
X8307Y3871D01*
X8278Y3842D01*
X8250Y3828D01*
X8192Y3814D01*
X8150Y3814D01*
X8092Y3828D01*
X8064Y3842D01*
X8035Y3871D01*
X8021Y3914D01*
X8021Y3942D01*
X8035Y3985D01*
X8050Y4000D01*
X8321Y4285D02*
X8321Y4114D01*
X8321Y4200D02*
X8021Y4200D01*
X8064Y4171D01*
X8092Y4142D01*
X8107Y4114D01*
X8121Y3828D02*
X7821Y3828D01*
X7821Y3900D01*
X7835Y3942D01*
X7864Y3971D01*
X7892Y3985D01*
X7950Y4000D01*
X7992Y4000D01*
X8050Y3985D01*
X8078Y3971D01*
X8107Y3942D01*
X8121Y3900D01*
X8121Y3828D01*
X8121Y4285D02*
X8121Y4114D01*
X8121Y4200D02*
X7821Y4200D01*
X7864Y4171D01*
X7892Y4142D01*
X7907Y4114D01*
X9092Y6500D02*
X9107Y6485D01*
X9121Y6442D01*
X9121Y6414D01*
X9107Y6371D01*
X9078Y6342D01*
X9050Y6328D01*
X8992Y6314D01*
X8950Y6314D01*
X8892Y6328D01*
X8864Y6342D01*
X8835Y6371D01*
X8821Y6414D01*
X8821Y6442D01*
X8835Y6485D01*
X8850Y6500D01*
X8850Y6614D02*
X8835Y6628D01*
X8821Y6657D01*
X8821Y6728D01*
X8835Y6757D01*
X8850Y6771D01*
X8878Y6785D01*
X8907Y6785D01*
X8950Y6771D01*
X9121Y6600D01*
X9121Y6785D01*
G54D19*
X23021Y15585D02*
X22921Y15585D01*
X22921Y15428D02*
X22921Y15728D01*
X23064Y15728D01*
X23135Y15728D02*
X23307Y15728D01*
X23221Y15428D02*
X23221Y15728D01*
X23407Y15428D02*
X23407Y15728D01*
X23478Y15728D01*
X23521Y15714D01*
X23550Y15685D01*
X23564Y15657D01*
X23578Y15600D01*
X23578Y15557D01*
X23564Y15500D01*
X23550Y15471D01*
X23521Y15442D01*
X23478Y15428D01*
X23407Y15428D01*
X23707Y15428D02*
X23707Y15728D01*
X24078Y15428D02*
X24078Y15728D01*
X24192Y15728D01*
X24221Y15714D01*
X24235Y15700D01*
X24250Y15671D01*
X24250Y15628D01*
X24235Y15600D01*
X24221Y15585D01*
X24192Y15571D01*
X24078Y15571D01*
X24435Y15728D02*
X24492Y15728D01*
X24521Y15714D01*
X24550Y15685D01*
X24564Y15628D01*
X24564Y15528D01*
X24550Y15471D01*
X24521Y15442D01*
X24492Y15428D01*
X24435Y15428D01*
X24407Y15442D01*
X24378Y15471D01*
X24364Y15528D01*
X24364Y15628D01*
X24378Y15685D01*
X24407Y15714D01*
X24435Y15728D01*
X24864Y15428D02*
X24764Y15571D01*
X24692Y15428D02*
X24692Y15728D01*
X24807Y15728D01*
X24835Y15714D01*
X24850Y15700D01*
X24864Y15671D01*
X24864Y15628D01*
X24850Y15600D01*
X24835Y15585D01*
X24807Y15571D01*
X24692Y15571D01*
X24950Y15728D02*
X25121Y15728D01*
X25035Y15428D02*
X25035Y15728D01*
X10435Y2700D02*
X10435Y2842D01*
X10521Y2671D02*
X10221Y2771D01*
X10521Y2871D01*
X10221Y2971D02*
X10464Y2971D01*
X10492Y2985D01*
X10507Y3000D01*
X10521Y3028D01*
X10521Y3085D01*
X10507Y3114D01*
X10492Y3128D01*
X10464Y3142D01*
X10221Y3142D01*
X10521Y3285D02*
X10221Y3285D01*
X10221Y3357D01*
X10235Y3400D01*
X10264Y3428D01*
X10292Y3442D01*
X10350Y3457D01*
X10392Y3457D01*
X10450Y3442D01*
X10478Y3428D01*
X10507Y3400D01*
X10521Y3357D01*
X10521Y3285D01*
X10521Y3585D02*
X10221Y3585D01*
X10221Y3785D02*
X10221Y3842D01*
X10235Y3871D01*
X10264Y3900D01*
X10321Y3914D01*
X10421Y3914D01*
X10478Y3900D01*
X10507Y3871D01*
X10521Y3842D01*
X10521Y3785D01*
X10507Y3757D01*
X10478Y3728D01*
X10421Y3714D01*
X10321Y3714D01*
X10264Y3728D01*
X10235Y3757D01*
X10221Y3785D01*
X10550Y3971D02*
X10550Y4200D01*
X10221Y4328D02*
X10221Y4385D01*
X10235Y4414D01*
X10264Y4442D01*
X10321Y4457D01*
X10421Y4457D01*
X10478Y4442D01*
X10507Y4414D01*
X10521Y4385D01*
X10521Y4328D01*
X10507Y4300D01*
X10478Y4271D01*
X10421Y4257D01*
X10321Y4257D01*
X10264Y4271D01*
X10235Y4300D01*
X10221Y4328D01*
X10221Y4585D02*
X10464Y4585D01*
X10492Y4600D01*
X10507Y4614D01*
X10521Y4642D01*
X10521Y4700D01*
X10507Y4728D01*
X10492Y4742D01*
X10464Y4757D01*
X10221Y4757D01*
X10221Y4857D02*
X10221Y5028D01*
X10521Y4942D02*
X10221Y4942D01*
X18864Y15728D02*
X19035Y15728D01*
X18950Y15428D02*
X18950Y15728D01*
X19107Y15728D02*
X19307Y15428D01*
X19307Y15728D02*
X19107Y15428D01*
X19350Y15400D02*
X19578Y15400D01*
X19821Y15428D02*
X19721Y15571D01*
X19650Y15428D02*
X19650Y15728D01*
X19764Y15728D01*
X19792Y15714D01*
X19807Y15700D01*
X19821Y15671D01*
X19821Y15628D01*
X19807Y15600D01*
X19792Y15585D01*
X19764Y15571D01*
X19650Y15571D01*
X19921Y15728D02*
X20121Y15428D01*
X20121Y15728D02*
X19921Y15428D01*
G54D20*
X4344Y6172D02*
X4344Y5969D01*
X4668Y5948D01*
X4636Y5969D01*
X4604Y6009D01*
X4604Y6111D01*
X4636Y6152D01*
X4668Y6172D01*
X4733Y6193D01*
X4895Y6193D01*
X4960Y6172D01*
X4993Y6152D01*
X5025Y6111D01*
X5025Y6009D01*
X4993Y5969D01*
X4960Y5948D01*
X4344Y6315D02*
X5025Y6458D01*
X4344Y6600D01*
X5025Y6743D02*
X4571Y6743D01*
X4344Y6743D02*
X4377Y6723D01*
X4409Y6743D01*
X4377Y6764D01*
X4344Y6743D01*
X4409Y6743D01*
X4571Y6947D02*
X5025Y6947D01*
X4636Y6947D02*
X4604Y6967D01*
X4571Y7008D01*
X4571Y7069D01*
X4604Y7110D01*
X4668Y7130D01*
X5025Y7130D01*
X5025Y3489D02*
X5025Y3244D01*
X5025Y3367D02*
X4344Y3367D01*
X4441Y3326D01*
X4506Y3285D01*
X4539Y3244D01*
X4409Y3652D02*
X4377Y3672D01*
X4344Y3713D01*
X4344Y3815D01*
X4377Y3856D01*
X4409Y3876D01*
X4474Y3897D01*
X4539Y3897D01*
X4636Y3876D01*
X5025Y3632D01*
X5025Y3897D01*
X4344Y4019D02*
X5025Y4162D01*
X4344Y4304D01*
X5025Y4447D02*
X4571Y4447D01*
X4344Y4447D02*
X4377Y4427D01*
X4409Y4447D01*
X4377Y4467D01*
X4344Y4447D01*
X4409Y4447D01*
X4571Y4651D02*
X5025Y4651D01*
X4636Y4651D02*
X4604Y4671D01*
X4571Y4712D01*
X4571Y4773D01*
X4604Y4814D01*
X4668Y4834D01*
X5025Y4834D01*
G54D16*
X24408Y11105D02*
X24243Y11105D01*
X24213Y11090D01*
X24198Y11060D01*
X24198Y11000D01*
X24213Y10970D01*
X24393Y11105D02*
X24408Y11075D01*
X24408Y11000D01*
X24393Y10970D01*
X24363Y10955D01*
X24333Y10955D01*
X24303Y10970D01*
X24288Y11000D01*
X24288Y11075D01*
X24273Y11105D01*
X24408Y11255D02*
X24198Y11255D01*
X24258Y11255D02*
X24228Y11270D01*
X24213Y11285D01*
X24198Y11315D01*
X24198Y11345D01*
X24393Y11569D02*
X24408Y11539D01*
X24408Y11479D01*
X24393Y11450D01*
X24363Y11435D01*
X24243Y11435D01*
X24213Y11450D01*
X24198Y11479D01*
X24198Y11539D01*
X24213Y11569D01*
X24243Y11584D01*
X24273Y11584D01*
X24303Y11435D01*
X24198Y11674D02*
X24198Y11794D01*
X24408Y11719D02*
X24138Y11719D01*
X24108Y11734D01*
X24093Y11764D01*
X24093Y11794D01*
X24198Y11854D02*
X24198Y11974D01*
X24408Y11899D02*
X24138Y11899D01*
X24108Y11914D01*
X24093Y11944D01*
X24093Y11974D01*
G54D13*
X25911Y10209D02*
X25511Y10209D01*
X25873Y10628D02*
X25892Y10609D01*
X25911Y10552D01*
X25911Y10514D01*
X25892Y10457D01*
X25854Y10419D01*
X25816Y10400D01*
X25740Y10380D01*
X25683Y10380D01*
X25607Y10400D01*
X25569Y10419D01*
X25530Y10457D01*
X25511Y10514D01*
X25511Y10552D01*
X25530Y10609D01*
X25550Y10628D01*
X25892Y10780D02*
X25911Y10838D01*
X25911Y10933D01*
X25892Y10971D01*
X25873Y10990D01*
X25835Y11009D01*
X25797Y11009D01*
X25759Y10990D01*
X25740Y10971D01*
X25721Y10933D01*
X25702Y10857D01*
X25683Y10819D01*
X25664Y10800D01*
X25626Y10780D01*
X25588Y10780D01*
X25550Y10800D01*
X25530Y10819D01*
X25511Y10857D01*
X25511Y10952D01*
X25530Y11009D01*
X25911Y11180D02*
X25511Y11180D01*
X25511Y11333D01*
X25530Y11371D01*
X25550Y11390D01*
X25588Y11409D01*
X25645Y11409D01*
X25683Y11390D01*
X25702Y11371D01*
X25721Y11333D01*
X25721Y11180D01*
X4992Y9483D02*
X4992Y9292D01*
X4392Y9292D01*
X4992Y9616D02*
X4392Y9616D01*
X4821Y9750D01*
X4392Y9883D01*
X4992Y9883D01*
X4392Y10035D02*
X4392Y10302D01*
X4992Y10130D01*
X4650Y10511D02*
X4621Y10473D01*
X4592Y10454D01*
X4535Y10435D01*
X4507Y10435D01*
X4450Y10454D01*
X4421Y10473D01*
X4392Y10511D01*
X4392Y10588D01*
X4421Y10626D01*
X4450Y10645D01*
X4507Y10664D01*
X4535Y10664D01*
X4592Y10645D01*
X4621Y10626D01*
X4650Y10588D01*
X4650Y10511D01*
X4678Y10473D01*
X4707Y10454D01*
X4764Y10435D01*
X4878Y10435D01*
X4935Y10454D01*
X4964Y10473D01*
X4992Y10511D01*
X4992Y10588D01*
X4964Y10626D01*
X4935Y10645D01*
X4878Y10664D01*
X4764Y10664D01*
X4707Y10645D01*
X4678Y10626D01*
X4650Y10588D01*
X4392Y10911D02*
X4392Y10950D01*
X4421Y10988D01*
X4450Y11007D01*
X4507Y11026D01*
X4621Y11045D01*
X4764Y11045D01*
X4878Y11026D01*
X4935Y11007D01*
X4964Y10988D01*
X4992Y10950D01*
X4992Y10911D01*
X4964Y10873D01*
X4935Y10854D01*
X4878Y10835D01*
X4764Y10816D01*
X4621Y10816D01*
X4507Y10835D01*
X4450Y10854D01*
X4421Y10873D01*
X4392Y10911D01*
X4392Y11407D02*
X4392Y11216D01*
X4678Y11197D01*
X4650Y11216D01*
X4621Y11254D01*
X4621Y11350D01*
X4650Y11388D01*
X4678Y11407D01*
X4735Y11426D01*
X4878Y11426D01*
X4935Y11407D01*
X4964Y11388D01*
X4992Y11350D01*
X4992Y11254D01*
X4964Y11216D01*
X4935Y11197D01*
X5092Y-416D02*
X5092Y-607D01*
X4492Y-607D01*
X5092Y-283D02*
X4492Y-283D01*
X4921Y-150D01*
X4492Y-16D01*
X5092Y-16D01*
X4492Y135D02*
X4492Y402D01*
X5092Y230D01*
X4750Y611D02*
X4721Y573D01*
X4692Y554D01*
X4635Y535D01*
X4607Y535D01*
X4550Y554D01*
X4521Y573D01*
X4492Y611D01*
X4492Y688D01*
X4521Y726D01*
X4550Y745D01*
X4607Y764D01*
X4635Y764D01*
X4692Y745D01*
X4721Y726D01*
X4750Y688D01*
X4750Y611D01*
X4778Y573D01*
X4807Y554D01*
X4864Y535D01*
X4978Y535D01*
X5035Y554D01*
X5064Y573D01*
X5092Y611D01*
X5092Y688D01*
X5064Y726D01*
X5035Y745D01*
X4978Y764D01*
X4864Y764D01*
X4807Y745D01*
X4778Y726D01*
X4750Y688D01*
X5092Y1145D02*
X5092Y916D01*
X5092Y1030D02*
X4492Y1030D01*
X4578Y992D01*
X4635Y954D01*
X4664Y916D01*
X4550Y1297D02*
X4521Y1316D01*
X4492Y1354D01*
X4492Y1450D01*
X4521Y1488D01*
X4550Y1507D01*
X4607Y1526D01*
X4664Y1526D01*
X4750Y1507D01*
X5092Y1278D01*
X5092Y1526D01*
G54D16*
X8694Y12310D02*
X8694Y12901D01*
X9031Y12310D02*
X8778Y12648D01*
X9031Y12901D02*
X8694Y12564D01*
X9565Y12310D02*
X9284Y12310D01*
X9284Y12901D01*
X9622Y12254D02*
X10071Y12254D01*
X10550Y12310D02*
X10353Y12592D01*
X10212Y12310D02*
X10212Y12901D01*
X10437Y12901D01*
X10493Y12873D01*
X10521Y12845D01*
X10550Y12789D01*
X10550Y12704D01*
X10521Y12648D01*
X10493Y12620D01*
X10437Y12592D01*
X10212Y12592D01*
X11112Y12873D02*
X11056Y12901D01*
X10971Y12901D01*
X10887Y12873D01*
X10831Y12817D01*
X10803Y12760D01*
X10775Y12648D01*
X10775Y12564D01*
X10803Y12451D01*
X10831Y12395D01*
X10887Y12339D01*
X10971Y12310D01*
X11028Y12310D01*
X11112Y12339D01*
X11140Y12367D01*
X11140Y12564D01*
X11028Y12564D01*
X11590Y12620D02*
X11674Y12592D01*
X11703Y12564D01*
X11731Y12507D01*
X11731Y12423D01*
X11703Y12367D01*
X11674Y12339D01*
X11618Y12310D01*
X11393Y12310D01*
X11393Y12901D01*
X11590Y12901D01*
X11646Y12873D01*
X11674Y12845D01*
X11703Y12789D01*
X11703Y12732D01*
X11674Y12676D01*
X11646Y12648D01*
X11590Y12620D01*
X11393Y12620D01*
X12265Y12310D02*
X11984Y12310D01*
X11984Y12901D01*
X12462Y12620D02*
X12659Y12620D01*
X12743Y12310D02*
X12462Y12310D01*
X12462Y12901D01*
X12743Y12901D01*
X12996Y12310D02*
X12996Y12901D01*
X13137Y12901D01*
X13221Y12873D01*
X13277Y12817D01*
X13305Y12760D01*
X13334Y12648D01*
X13334Y12564D01*
X13305Y12451D01*
X13277Y12395D01*
X13221Y12339D01*
X13137Y12310D01*
X12996Y12310D01*
G54D21*
G54D15*
X17783Y2566D02*
X17783Y3266D01*
X18016Y2766D01*
X18250Y3266D01*
X18250Y2566D01*
X18716Y3266D02*
X18850Y3266D01*
X18916Y3233D01*
X18983Y3166D01*
X19016Y3033D01*
X19016Y2800D01*
X18983Y2666D01*
X18916Y2600D01*
X18850Y2566D01*
X18716Y2566D01*
X18650Y2600D01*
X18583Y2666D01*
X18550Y2800D01*
X18550Y3033D01*
X18583Y3166D01*
X18650Y3233D01*
X18716Y3266D01*
X19283Y2600D02*
X19383Y2566D01*
X19550Y2566D01*
X19616Y2600D01*
X19650Y2633D01*
X19683Y2700D01*
X19683Y2766D01*
X19650Y2833D01*
X19616Y2866D01*
X19550Y2900D01*
X19416Y2933D01*
X19350Y2966D01*
X19316Y3000D01*
X19283Y3066D01*
X19283Y3133D01*
X19316Y3200D01*
X19350Y3233D01*
X19416Y3266D01*
X19583Y3266D01*
X19683Y3233D01*
X20283Y3266D02*
X20150Y3266D01*
X20083Y3233D01*
X20050Y3200D01*
X19983Y3100D01*
X19950Y2966D01*
X19950Y2700D01*
X19983Y2633D01*
X20016Y2600D01*
X20083Y2566D01*
X20216Y2566D01*
X20283Y2600D01*
X20316Y2633D01*
X20350Y2700D01*
X20350Y2866D01*
X20316Y2933D01*
X20283Y2966D01*
X20216Y3000D01*
X20083Y3000D01*
X20016Y2966D01*
X19983Y2933D01*
X19950Y2866D01*
X20983Y3266D02*
X20650Y3266D01*
X20616Y2933D01*
X20650Y2966D01*
X20716Y3000D01*
X20883Y3000D01*
X20950Y2966D01*
X20983Y2933D01*
X21016Y2866D01*
X21016Y2700D01*
X20983Y2633D01*
X20950Y2600D01*
X20883Y2566D01*
X20716Y2566D01*
X20650Y2600D01*
X20616Y2633D01*
X21416Y2966D02*
X21350Y3000D01*
X21316Y3033D01*
X21283Y3100D01*
X21283Y3133D01*
X21316Y3200D01*
X21350Y3233D01*
X21416Y3266D01*
X21550Y3266D01*
X21616Y3233D01*
X21650Y3200D01*
X21683Y3133D01*
X21683Y3100D01*
X21650Y3033D01*
X21616Y3000D01*
X21550Y2966D01*
X21416Y2966D01*
X21350Y2933D01*
X21316Y2900D01*
X21283Y2833D01*
X21283Y2700D01*
X21316Y2633D01*
X21350Y2600D01*
X21416Y2566D01*
X21550Y2566D01*
X21616Y2600D01*
X21650Y2633D01*
X21683Y2700D01*
X21683Y2833D01*
X21650Y2900D01*
X21616Y2933D01*
X21550Y2966D01*
X22350Y2566D02*
X21950Y2566D01*
X22150Y2566D02*
X22150Y3266D01*
X22083Y3166D01*
X22016Y3100D01*
X21950Y3066D01*
G54D16*
X9170Y9467D02*
X9142Y9439D01*
X9057Y9410D01*
X9001Y9410D01*
X8917Y9439D01*
X8861Y9495D01*
X8832Y9551D01*
X8804Y9664D01*
X8804Y9748D01*
X8832Y9860D01*
X8861Y9917D01*
X8917Y9973D01*
X9001Y10001D01*
X9057Y10001D01*
X9142Y9973D01*
X9170Y9945D01*
X9732Y9410D02*
X9395Y9410D01*
X9564Y9410D02*
X9564Y10001D01*
X9507Y9917D01*
X9451Y9860D01*
X9395Y9832D01*
X10295Y9410D02*
X9957Y9410D01*
X10126Y9410D02*
X10126Y10001D01*
X10070Y9917D01*
X10014Y9860D01*
X9957Y9832D01*
X9401Y617D02*
X9373Y589D01*
X9289Y560D01*
X9232Y560D01*
X9148Y589D01*
X9092Y645D01*
X9064Y701D01*
X9035Y814D01*
X9035Y898D01*
X9064Y1010D01*
X9092Y1067D01*
X9148Y1123D01*
X9232Y1151D01*
X9289Y1151D01*
X9373Y1123D01*
X9401Y1095D01*
X9598Y1151D02*
X9964Y1151D01*
X9767Y926D01*
X9851Y926D01*
X9907Y898D01*
X9935Y870D01*
X9964Y814D01*
X9964Y673D01*
X9935Y617D01*
X9907Y589D01*
X9851Y560D01*
X9682Y560D01*
X9626Y589D01*
X9598Y617D01*
X11432Y12920D02*
X11460Y12892D01*
X11489Y12807D01*
X11489Y12751D01*
X11460Y12667D01*
X11404Y12611D01*
X11348Y12582D01*
X11235Y12554D01*
X11151Y12554D01*
X11039Y12582D01*
X10982Y12611D01*
X10926Y12667D01*
X10898Y12751D01*
X10898Y12807D01*
X10926Y12892D01*
X10954Y12920D01*
X11489Y13482D02*
X11489Y13145D01*
X11489Y13314D02*
X10898Y13314D01*
X10982Y13257D01*
X11039Y13201D01*
X11067Y13145D01*
X10954Y13707D02*
X10926Y13735D01*
X10898Y13792D01*
X10898Y13932D01*
X10926Y13988D01*
X10954Y14017D01*
X11010Y14045D01*
X11067Y14045D01*
X11151Y14017D01*
X11489Y13679D01*
X11489Y14045D01*
X12932Y7451D02*
X12960Y7423D01*
X12989Y7339D01*
X12989Y7282D01*
X12960Y7198D01*
X12904Y7142D01*
X12848Y7114D01*
X12735Y7085D01*
X12651Y7085D01*
X12539Y7114D01*
X12482Y7142D01*
X12426Y7198D01*
X12398Y7282D01*
X12398Y7339D01*
X12426Y7423D01*
X12454Y7451D01*
X12595Y7957D02*
X12989Y7957D01*
X12370Y7817D02*
X12792Y7676D01*
X12792Y8042D01*
G54D17*
G54D19*
X13714Y-2871D02*
X13828Y-2871D01*
X13757Y-3071D02*
X13757Y-2814D01*
X13771Y-2785D01*
X13800Y-2771D01*
X13828Y-2771D01*
X13928Y-3071D02*
X13928Y-2871D01*
X13928Y-2771D02*
X13914Y-2785D01*
X13928Y-2800D01*
X13942Y-2785D01*
X13928Y-2771D01*
X13928Y-2800D01*
X14114Y-3071D02*
X14085Y-3057D01*
X14071Y-3028D01*
X14071Y-2771D01*
X14185Y-2871D02*
X14300Y-2871D01*
X14228Y-2771D02*
X14228Y-3028D01*
X14242Y-3057D01*
X14271Y-3071D01*
X14300Y-3071D01*
X14514Y-3057D02*
X14485Y-3071D01*
X14428Y-3071D01*
X14400Y-3057D01*
X14385Y-3028D01*
X14385Y-2914D01*
X14400Y-2885D01*
X14428Y-2871D01*
X14485Y-2871D01*
X14514Y-2885D01*
X14528Y-2914D01*
X14528Y-2942D01*
X14385Y-2971D01*
X14657Y-3071D02*
X14657Y-2871D01*
X14657Y-2928D02*
X14671Y-2900D01*
X14685Y-2885D01*
X14714Y-2871D01*
X14742Y-2871D01*
X14971Y-3057D02*
X14942Y-3071D01*
X14885Y-3071D01*
X14857Y-3057D01*
X14842Y-3042D01*
X14828Y-3014D01*
X14828Y-2928D01*
X14842Y-2900D01*
X14857Y-2885D01*
X14885Y-2871D01*
X14942Y-2871D01*
X14971Y-2885D01*
X15228Y-3071D02*
X15228Y-2914D01*
X15214Y-2885D01*
X15185Y-2871D01*
X15128Y-2871D01*
X15100Y-2885D01*
X15228Y-3057D02*
X15200Y-3071D01*
X15128Y-3071D01*
X15100Y-3057D01*
X15085Y-3028D01*
X15085Y-3000D01*
X15100Y-2971D01*
X15128Y-2957D01*
X15200Y-2957D01*
X15228Y-2942D01*
X15371Y-2871D02*
X15371Y-3171D01*
X15371Y-2885D02*
X15400Y-2871D01*
X15457Y-2871D01*
X15485Y-2885D01*
X15500Y-2900D01*
X15514Y-2928D01*
X15514Y-3014D01*
X15500Y-3042D01*
X15485Y-3057D01*
X15457Y-3071D01*
X15400Y-3071D01*
X15371Y-3057D01*
X15628Y-3057D02*
X15657Y-3071D01*
X15714Y-3071D01*
X15742Y-3057D01*
X15757Y-3028D01*
X15757Y-3014D01*
X15742Y-2985D01*
X15714Y-2971D01*
X15671Y-2971D01*
X15642Y-2957D01*
X15628Y-2928D01*
X15628Y-2914D01*
X15642Y-2885D01*
X15671Y-2871D01*
X15714Y-2871D01*
X15742Y-2885D01*
M02*
