G04 (created by PCBNEW (2013-jul-07)-stable) date Sat 20 Jun 2015 02:51:25 AM PDT*
%MOIN*%
G04 Gerber Fmt 3.4, Leading zero omitted, Abs format*
%FSLAX34Y34*%
G01*
G70*
G90*
G04 APERTURE LIST*
%ADD10C,0.00393701*%
%ADD11C,0.056*%
%ADD12R,0.055X0.055*%
%ADD13C,0.055*%
%ADD14R,0.0590551X0.0590551*%
%ADD15C,0.06*%
%ADD16R,0.06X0.06*%
%ADD17C,0.07*%
%ADD18R,0.07X0.07*%
%ADD19C,0.16*%
%ADD20C,0.035*%
%ADD21C,0.03*%
%ADD22C,0.015*%
%ADD23C,0.01*%
G04 APERTURE END LIST*
G54D10*
G54D11*
X18650Y7750D03*
X18650Y9750D03*
G54D12*
X21500Y14800D03*
G54D13*
X22500Y14800D03*
X23500Y14800D03*
X24500Y14800D03*
X25500Y14800D03*
X26500Y14800D03*
G54D12*
X11150Y4850D03*
G54D13*
X11150Y3850D03*
X19500Y13800D03*
X19500Y14800D03*
G54D12*
X6750Y6050D03*
G54D13*
X6750Y7050D03*
G54D12*
X5750Y7050D03*
G54D13*
X5750Y6050D03*
G54D12*
X5750Y3550D03*
G54D13*
X5750Y4550D03*
G54D12*
X6750Y3550D03*
G54D13*
X6750Y4550D03*
G54D14*
X24950Y11450D03*
G54D15*
X27750Y9800D03*
X26750Y9800D03*
X27750Y10800D03*
X26750Y10800D03*
X27750Y11800D03*
G54D16*
X26750Y11800D03*
G54D17*
X6150Y9350D03*
G54D18*
X6150Y10350D03*
G54D17*
X6150Y11350D03*
X6250Y-650D03*
G54D18*
X6250Y350D03*
G54D17*
X6250Y1350D03*
G54D15*
X13000Y11300D03*
X13750Y11300D03*
G54D16*
X14500Y11300D03*
G54D15*
X15250Y11300D03*
G54D13*
X13350Y-150D03*
X14350Y-150D03*
X15350Y-150D03*
X16350Y-150D03*
X17350Y-150D03*
X18350Y-150D03*
X19350Y-150D03*
X20350Y-150D03*
X21350Y-150D03*
X22350Y-150D03*
X23350Y-150D03*
X24350Y-150D03*
X25350Y-150D03*
G54D12*
X26350Y-150D03*
G54D13*
X26350Y5850D03*
X25350Y5850D03*
X24350Y5850D03*
X23350Y5850D03*
X22350Y5850D03*
X21350Y5850D03*
X20350Y5850D03*
X19350Y5850D03*
X18350Y5850D03*
X17350Y5850D03*
X16350Y5850D03*
X15350Y5850D03*
X14350Y5850D03*
X13350Y5850D03*
G54D15*
X9550Y10650D03*
G54D16*
X9550Y8650D03*
X9500Y-200D03*
G54D15*
X9500Y1800D03*
G54D16*
X10350Y12750D03*
G54D15*
X10350Y13750D03*
G54D16*
X12000Y7050D03*
G54D15*
X12000Y8050D03*
G54D19*
X5250Y-2700D03*
X5250Y16050D03*
X28250Y-2700D03*
X28250Y16050D03*
G54D13*
X16500Y-2200D03*
X15500Y-2200D03*
X14500Y-2200D03*
X13500Y-2200D03*
G54D20*
X22850Y12700D03*
X28000Y12700D03*
X12550Y-2350D03*
X22650Y10350D03*
X22450Y11550D03*
X21700Y11950D03*
X13850Y4550D03*
X13700Y15650D03*
X20500Y13450D03*
X20450Y12850D03*
X16550Y14300D03*
X15850Y14850D03*
X20050Y12450D03*
X28050Y7050D03*
X23600Y8800D03*
X28350Y7550D03*
X28150Y8050D03*
X19850Y8950D03*
X17050Y6850D03*
X24350Y3650D03*
X19650Y7850D03*
X17950Y4950D03*
X18850Y4850D03*
X20050Y7150D03*
X19850Y3550D03*
X23850Y4650D03*
X23850Y6550D03*
X19350Y3450D03*
X22950Y9050D03*
X27550Y6850D03*
X12650Y4550D03*
X19750Y12050D03*
X15850Y4850D03*
X19550Y10350D03*
X16950Y8450D03*
X14750Y6750D03*
X19750Y10950D03*
X24350Y16300D03*
X17850Y14300D03*
X28600Y14650D03*
X6950Y13550D03*
X23650Y12000D03*
X15750Y13050D03*
X15750Y12050D03*
G54D21*
X6250Y1350D02*
X6950Y1350D01*
X13350Y2650D02*
X13350Y5850D01*
X13200Y2500D02*
X13350Y2650D01*
X8100Y2500D02*
X13200Y2500D01*
X6950Y1350D02*
X8100Y2500D01*
X22850Y12700D02*
X28000Y12700D01*
X16650Y-850D02*
X17350Y-150D01*
X12950Y-850D02*
X16650Y-850D01*
X12550Y-1250D02*
X12950Y-850D01*
X12550Y-2350D02*
X12550Y-1250D01*
G54D22*
X16350Y5850D02*
X16350Y3450D01*
G54D21*
X17350Y2450D02*
X17350Y-150D01*
X16350Y3450D02*
X17350Y2450D01*
G54D22*
X20350Y-150D02*
X20350Y-50D01*
X22350Y10050D02*
X22650Y10350D01*
X21550Y9250D02*
X22350Y10050D01*
X21550Y7250D02*
X21550Y9250D01*
X21850Y6950D02*
X21550Y7250D01*
X21850Y4950D02*
X21850Y6950D01*
G54D21*
X22250Y4550D02*
X21850Y4950D01*
X22250Y1850D02*
X22250Y4550D01*
X20350Y-50D02*
X22250Y1850D01*
X19350Y-150D02*
X19350Y850D01*
G54D22*
X22450Y10850D02*
X22450Y11550D01*
X20950Y9350D02*
X22450Y10850D01*
X20950Y6750D02*
X20950Y9350D01*
X20850Y6650D02*
X20950Y6750D01*
X20850Y4150D02*
X20850Y6650D01*
X20450Y3750D02*
X20850Y4150D01*
X20450Y1950D02*
X20450Y3750D01*
G54D21*
X19350Y850D02*
X20450Y1950D01*
G54D22*
X20650Y11950D02*
X21700Y11950D01*
X20150Y11450D02*
X20650Y11950D01*
X18950Y11450D02*
X20150Y11450D01*
X17650Y10150D02*
X18950Y11450D01*
X17350Y10150D02*
X17650Y10150D01*
X13850Y6650D02*
X17350Y10150D01*
X13850Y4550D02*
X13850Y6650D01*
X14100Y15250D02*
X13700Y15650D01*
X16300Y15250D02*
X14100Y15250D01*
X17000Y14550D02*
X16300Y15250D01*
X17000Y13500D02*
X17000Y14550D01*
X17250Y13250D02*
X17000Y13500D01*
X20300Y13250D02*
X17250Y13250D01*
X20500Y13450D02*
X20300Y13250D01*
X16800Y12850D02*
X20450Y12850D01*
X16650Y13000D02*
X16800Y12850D01*
X16650Y14200D02*
X16650Y13000D01*
X16550Y14300D02*
X16650Y14200D01*
X15850Y14550D02*
X15850Y14850D01*
X16150Y14250D02*
X15850Y14550D01*
X16150Y12450D02*
X16150Y14250D01*
X19250Y12450D02*
X16150Y12450D01*
X20050Y12450D02*
X19250Y12450D01*
X23350Y150D02*
X23350Y-150D01*
X24650Y1450D02*
X23350Y150D01*
X27450Y1450D02*
X24650Y1450D01*
X28050Y2050D02*
X27450Y1450D01*
X28050Y7050D02*
X28050Y2050D01*
X26450Y10800D02*
X26750Y10800D01*
G54D21*
X26000Y10350D02*
X26450Y10800D01*
X26000Y9950D02*
X26000Y10350D01*
X25100Y9050D02*
X26000Y9950D01*
X23850Y9050D02*
X25100Y9050D01*
X23600Y8800D02*
X23850Y9050D01*
G54D22*
X24350Y150D02*
X24350Y-150D01*
X25250Y1050D02*
X24350Y150D01*
X27750Y1050D02*
X25250Y1050D01*
X28450Y1750D02*
X27750Y1050D01*
X28450Y7450D02*
X28450Y1750D01*
X28350Y7550D02*
X28450Y7450D01*
X28350Y8050D02*
X28750Y8050D01*
X28450Y8050D02*
X28350Y8050D01*
X28150Y8050D02*
X28450Y8050D01*
X25300Y-200D02*
X25300Y350D01*
X25300Y350D02*
X25750Y750D01*
X25750Y750D02*
X27950Y750D01*
X27950Y750D02*
X28750Y1550D01*
X28750Y1550D02*
X28750Y8050D01*
X28750Y8050D02*
X28750Y8800D01*
X28750Y8800D02*
X27750Y9800D01*
X24350Y5850D02*
X24350Y3650D01*
X19450Y8550D02*
X19850Y8950D01*
X18150Y8550D02*
X19450Y8550D01*
X17850Y8250D02*
X18150Y8550D01*
X17850Y7650D02*
X17850Y8250D01*
X17050Y6850D02*
X17850Y7650D01*
X19650Y7450D02*
X19650Y7850D01*
X19050Y6850D02*
X19650Y7450D01*
X18450Y6850D02*
X19050Y6850D01*
X17850Y6250D02*
X18450Y6850D01*
X17850Y5050D02*
X17850Y6250D01*
X17950Y4950D02*
X17850Y5050D01*
X18850Y6350D02*
X18850Y4850D01*
X18950Y6450D02*
X18850Y6350D01*
X19350Y6450D02*
X18950Y6450D01*
X20050Y7150D02*
X19350Y6450D01*
X20350Y4050D02*
X20350Y5850D01*
X19850Y3550D02*
X20350Y4050D01*
X23850Y6550D02*
X23850Y4650D01*
G54D21*
X19350Y3450D02*
X19350Y5850D01*
G54D22*
X21350Y50D02*
X21350Y-150D01*
G54D21*
X22850Y1550D02*
X21350Y50D01*
G54D22*
X22850Y6450D02*
X22850Y1550D01*
X21950Y7350D02*
X22850Y6450D01*
X21950Y8050D02*
X21950Y7350D01*
X22950Y9050D02*
X21950Y8050D01*
X22350Y50D02*
X22350Y-150D01*
G54D21*
X24050Y1750D02*
X22350Y50D01*
G54D22*
X27150Y1750D02*
X24050Y1750D01*
X27750Y2350D02*
X27150Y1750D01*
X27750Y6650D02*
X27750Y2350D01*
X27550Y6850D02*
X27750Y6650D01*
X27750Y11800D02*
X27750Y11750D01*
X20150Y12050D02*
X20400Y12300D01*
X20400Y12300D02*
X21200Y12300D01*
X21200Y12300D02*
X21400Y12500D01*
X20150Y12050D02*
X19750Y12050D01*
X22100Y12500D02*
X21400Y12500D01*
X22900Y11700D02*
X22100Y12500D01*
X22900Y11050D02*
X22900Y11700D01*
X23400Y10550D02*
X22900Y11050D01*
X25200Y10550D02*
X23400Y10550D01*
X25950Y11300D02*
X25200Y10550D01*
X27300Y11300D02*
X25950Y11300D01*
X27750Y11750D02*
X27300Y11300D01*
X12650Y5350D02*
X12650Y4550D01*
X12650Y5850D02*
X12650Y5350D01*
X13150Y6350D02*
X12650Y5850D01*
X13150Y6450D02*
X13150Y6350D01*
X17750Y11050D02*
X13150Y6450D01*
X17950Y11050D02*
X17750Y11050D01*
X18650Y11750D02*
X17950Y11050D01*
X19450Y11750D02*
X18650Y11750D01*
X19750Y12050D02*
X19450Y11750D01*
G54D21*
X19500Y13800D02*
X19900Y13800D01*
X25500Y14550D02*
X25500Y14800D01*
X24850Y13900D02*
X25500Y14550D01*
X20000Y13900D02*
X24850Y13900D01*
X19900Y13800D02*
X20000Y13900D01*
G54D22*
X15850Y4750D02*
X15850Y4850D01*
X15850Y6850D02*
X15850Y4750D01*
X17150Y8150D02*
X15850Y6850D01*
X18050Y9050D02*
X17150Y8150D01*
X19250Y9050D02*
X18050Y9050D01*
X19550Y9350D02*
X19250Y9050D01*
X19550Y10350D02*
X19550Y9350D01*
X17300Y8800D02*
X17300Y9300D01*
X16950Y8450D02*
X17300Y8800D01*
G54D21*
X19500Y14800D02*
X20150Y14800D01*
X24500Y15150D02*
X24500Y14800D01*
X23850Y15800D02*
X24500Y15150D01*
X20900Y15800D02*
X23850Y15800D01*
X20550Y15450D02*
X20900Y15800D01*
X20550Y15200D02*
X20550Y15450D01*
X20150Y14800D02*
X20550Y15200D01*
G54D22*
X16900Y8900D02*
X17300Y9300D01*
X14750Y6750D02*
X16900Y8900D01*
X17300Y9300D02*
X18150Y10150D01*
X18150Y10150D02*
X18250Y10150D01*
X18250Y10150D02*
X19050Y10950D01*
X19050Y10950D02*
X19750Y10950D01*
G54D21*
X17750Y16700D02*
X24100Y16700D01*
X24350Y16450D02*
X24350Y16300D01*
X24100Y16700D02*
X24350Y16450D01*
X10350Y15650D02*
X10350Y13750D01*
X11400Y16700D02*
X10350Y15650D01*
X17850Y16700D02*
X17750Y16700D01*
X17750Y16700D02*
X11400Y16700D01*
X17900Y16650D02*
X17850Y16700D01*
X17900Y14350D02*
X17900Y16650D01*
X17850Y14300D02*
X17900Y14350D01*
X28600Y14650D02*
X29150Y14650D01*
X12000Y8050D02*
X13900Y8050D01*
X14500Y8650D02*
X14500Y11300D01*
X13900Y8050D02*
X14500Y8650D01*
X26350Y-150D02*
X26750Y-150D01*
X26750Y-150D02*
X27150Y250D01*
X27150Y250D02*
X28150Y250D01*
X28150Y250D02*
X29150Y1250D01*
X29150Y1250D02*
X29150Y14650D01*
X29150Y14650D02*
X29150Y15150D01*
G54D22*
X29150Y15150D02*
X28250Y16050D01*
G54D21*
X9550Y8650D02*
X11400Y8650D01*
X11400Y8650D02*
X12000Y8050D01*
X6950Y13550D02*
X6950Y10350D01*
X6950Y10350D02*
X6950Y10450D01*
X6950Y10450D02*
X6950Y10350D01*
X9550Y8650D02*
X9550Y8750D01*
X9550Y8750D02*
X7950Y10350D01*
X7950Y10350D02*
X6950Y10350D01*
X6950Y10350D02*
X6150Y10350D01*
X24200Y11450D02*
X24950Y11450D01*
X23650Y12000D02*
X24200Y11450D01*
G54D22*
X15750Y12050D02*
X15750Y13050D01*
G54D10*
G36*
X24035Y15049D02*
X23999Y14964D01*
X23945Y15097D01*
X23797Y15244D01*
X23604Y15324D01*
X23396Y15325D01*
X23203Y15245D01*
X23055Y15097D01*
X22999Y14964D01*
X22945Y15097D01*
X22797Y15244D01*
X22604Y15324D01*
X22396Y15325D01*
X22203Y15245D01*
X22055Y15097D01*
X22025Y15025D01*
X22025Y15025D01*
X22024Y15124D01*
X21986Y15216D01*
X21916Y15287D01*
X21824Y15325D01*
X21612Y15325D01*
X21550Y15262D01*
X21550Y14850D01*
X21557Y14850D01*
X21557Y14750D01*
X21550Y14750D01*
X21550Y14742D01*
X21450Y14742D01*
X21450Y14750D01*
X21450Y14850D01*
X21450Y15262D01*
X21387Y15325D01*
X21175Y15325D01*
X21083Y15287D01*
X21013Y15216D01*
X20975Y15124D01*
X20974Y15025D01*
X20975Y14912D01*
X21037Y14850D01*
X21450Y14850D01*
X21450Y14750D01*
X21037Y14750D01*
X20975Y14687D01*
X20974Y14574D01*
X20975Y14475D01*
X21013Y14383D01*
X21083Y14312D01*
X21114Y14300D01*
X20000Y14300D01*
X19846Y14269D01*
X19803Y14240D01*
X19802Y14239D01*
X19797Y14244D01*
X19664Y14300D01*
X19797Y14354D01*
X19842Y14400D01*
X20150Y14400D01*
X20150Y14400D01*
X20277Y14425D01*
X20303Y14430D01*
X20303Y14430D01*
X20432Y14517D01*
X20832Y14917D01*
X20832Y14917D01*
X20919Y15046D01*
X20919Y15046D01*
X20919Y15046D01*
X20949Y15199D01*
X20950Y15200D01*
X20950Y15284D01*
X21065Y15400D01*
X23684Y15400D01*
X24035Y15049D01*
X24035Y15049D01*
G37*
G54D23*
X24035Y15049D02*
X23999Y14964D01*
X23945Y15097D01*
X23797Y15244D01*
X23604Y15324D01*
X23396Y15325D01*
X23203Y15245D01*
X23055Y15097D01*
X22999Y14964D01*
X22945Y15097D01*
X22797Y15244D01*
X22604Y15324D01*
X22396Y15325D01*
X22203Y15245D01*
X22055Y15097D01*
X22025Y15025D01*
X22025Y15025D01*
X22024Y15124D01*
X21986Y15216D01*
X21916Y15287D01*
X21824Y15325D01*
X21612Y15325D01*
X21550Y15262D01*
X21550Y14850D01*
X21557Y14850D01*
X21557Y14750D01*
X21550Y14750D01*
X21550Y14742D01*
X21450Y14742D01*
X21450Y14750D01*
X21450Y14850D01*
X21450Y15262D01*
X21387Y15325D01*
X21175Y15325D01*
X21083Y15287D01*
X21013Y15216D01*
X20975Y15124D01*
X20974Y15025D01*
X20975Y14912D01*
X21037Y14850D01*
X21450Y14850D01*
X21450Y14750D01*
X21037Y14750D01*
X20975Y14687D01*
X20974Y14574D01*
X20975Y14475D01*
X21013Y14383D01*
X21083Y14312D01*
X21114Y14300D01*
X20000Y14300D01*
X19846Y14269D01*
X19803Y14240D01*
X19802Y14239D01*
X19797Y14244D01*
X19664Y14300D01*
X19797Y14354D01*
X19842Y14400D01*
X20150Y14400D01*
X20150Y14400D01*
X20277Y14425D01*
X20303Y14430D01*
X20303Y14430D01*
X20432Y14517D01*
X20832Y14917D01*
X20832Y14917D01*
X20919Y15046D01*
X20919Y15046D01*
X20919Y15046D01*
X20949Y15199D01*
X20950Y15200D01*
X20950Y15284D01*
X21065Y15400D01*
X23684Y15400D01*
X24035Y15049D01*
G54D10*
G36*
X26807Y11750D02*
X26800Y11750D01*
X26800Y11742D01*
X26700Y11742D01*
X26700Y11750D01*
X26262Y11750D01*
X26200Y11687D01*
X26199Y11625D01*
X25950Y11625D01*
X25949Y11625D01*
X25925Y11620D01*
X25825Y11600D01*
X25720Y11529D01*
X25720Y11529D01*
X25495Y11304D01*
X25495Y11794D01*
X25457Y11886D01*
X25387Y11957D01*
X25295Y11995D01*
X25195Y11995D01*
X24605Y11995D01*
X24513Y11957D01*
X24442Y11887D01*
X24427Y11850D01*
X24365Y11850D01*
X24035Y12180D01*
X24010Y12240D01*
X23951Y12300D01*
X26296Y12300D01*
X26237Y12241D01*
X26199Y12149D01*
X26200Y11912D01*
X26262Y11850D01*
X26700Y11850D01*
X26700Y11857D01*
X26800Y11857D01*
X26800Y11850D01*
X26807Y11850D01*
X26807Y11750D01*
X26807Y11750D01*
G37*
G54D23*
X26807Y11750D02*
X26800Y11750D01*
X26800Y11742D01*
X26700Y11742D01*
X26700Y11750D01*
X26262Y11750D01*
X26200Y11687D01*
X26199Y11625D01*
X25950Y11625D01*
X25949Y11625D01*
X25925Y11620D01*
X25825Y11600D01*
X25720Y11529D01*
X25720Y11529D01*
X25495Y11304D01*
X25495Y11794D01*
X25457Y11886D01*
X25387Y11957D01*
X25295Y11995D01*
X25195Y11995D01*
X24605Y11995D01*
X24513Y11957D01*
X24442Y11887D01*
X24427Y11850D01*
X24365Y11850D01*
X24035Y12180D01*
X24010Y12240D01*
X23951Y12300D01*
X26296Y12300D01*
X26237Y12241D01*
X26199Y12149D01*
X26200Y11912D01*
X26262Y11850D01*
X26700Y11850D01*
X26700Y11857D01*
X26800Y11857D01*
X26800Y11850D01*
X26807Y11850D01*
X26807Y11750D01*
G54D10*
G36*
X29220Y-2299D02*
X29140Y-2106D01*
X29075Y-2040D01*
X29075Y1549D01*
X29074Y1550D01*
X29075Y1550D01*
X29075Y8050D01*
X29075Y8800D01*
X29050Y8924D01*
X29050Y8924D01*
X28979Y9029D01*
X28979Y9029D01*
X28299Y9709D01*
X28300Y9908D01*
X28216Y10111D01*
X28061Y10265D01*
X27980Y10299D01*
X28061Y10333D01*
X28215Y10488D01*
X28299Y10690D01*
X28300Y10908D01*
X28216Y11111D01*
X28061Y11265D01*
X27980Y11299D01*
X28061Y11333D01*
X28215Y11488D01*
X28299Y11690D01*
X28300Y11908D01*
X28216Y12111D01*
X28061Y12265D01*
X28040Y12274D01*
X28084Y12274D01*
X28240Y12339D01*
X28360Y12458D01*
X28424Y12615D01*
X28425Y12784D01*
X28360Y12940D01*
X28241Y13060D01*
X28084Y13124D01*
X27915Y13125D01*
X27855Y13100D01*
X22994Y13100D01*
X22934Y13124D01*
X22765Y13125D01*
X22609Y13060D01*
X22489Y12941D01*
X22425Y12784D01*
X22424Y12634D01*
X22329Y12729D01*
X22224Y12800D01*
X22100Y12825D01*
X21400Y12825D01*
X21275Y12800D01*
X21170Y12729D01*
X21170Y12729D01*
X21065Y12625D01*
X20816Y12625D01*
X20874Y12765D01*
X20875Y12934D01*
X20810Y13090D01*
X20775Y13124D01*
X20860Y13208D01*
X20924Y13365D01*
X20925Y13500D01*
X24850Y13500D01*
X24850Y13500D01*
X24977Y13525D01*
X25003Y13530D01*
X25003Y13530D01*
X25132Y13617D01*
X25782Y14267D01*
X25782Y14267D01*
X25840Y14353D01*
X25869Y14396D01*
X25869Y14396D01*
X25877Y14434D01*
X25877Y14434D01*
X25944Y14502D01*
X26000Y14635D01*
X26054Y14503D01*
X26202Y14355D01*
X26395Y14275D01*
X26603Y14274D01*
X26797Y14354D01*
X26944Y14502D01*
X27024Y14695D01*
X27025Y14903D01*
X26945Y15097D01*
X26797Y15244D01*
X26604Y15324D01*
X26396Y15325D01*
X26203Y15245D01*
X26055Y15097D01*
X25999Y14964D01*
X25945Y15097D01*
X25797Y15244D01*
X25604Y15324D01*
X25396Y15325D01*
X25203Y15245D01*
X25055Y15097D01*
X24999Y14964D01*
X24945Y15097D01*
X24900Y15142D01*
X24900Y15150D01*
X24869Y15303D01*
X24869Y15303D01*
X24840Y15346D01*
X24782Y15432D01*
X24782Y15432D01*
X24132Y16082D01*
X24003Y16169D01*
X23977Y16174D01*
X23850Y16200D01*
X20900Y16200D01*
X20746Y16169D01*
X20746Y16169D01*
X20746Y16169D01*
X20617Y16082D01*
X20267Y15732D01*
X20180Y15603D01*
X20175Y15577D01*
X20150Y15450D01*
X20150Y15365D01*
X19984Y15200D01*
X19842Y15200D01*
X19797Y15244D01*
X19604Y15324D01*
X19396Y15325D01*
X19203Y15245D01*
X19055Y15097D01*
X18975Y14904D01*
X18974Y14696D01*
X19054Y14503D01*
X19202Y14355D01*
X19335Y14299D01*
X19203Y14245D01*
X19055Y14097D01*
X18975Y13904D01*
X18974Y13696D01*
X19024Y13575D01*
X17384Y13575D01*
X17325Y13634D01*
X17325Y14550D01*
X17324Y14550D01*
X17325Y14550D01*
X17320Y14574D01*
X17300Y14674D01*
X17300Y14674D01*
X17229Y14779D01*
X17229Y14779D01*
X16529Y15479D01*
X16424Y15550D01*
X16300Y15575D01*
X14234Y15575D01*
X14125Y15684D01*
X14125Y15734D01*
X14060Y15890D01*
X13941Y16010D01*
X13784Y16074D01*
X13615Y16075D01*
X13459Y16010D01*
X13339Y15891D01*
X13275Y15734D01*
X13274Y15565D01*
X13339Y15409D01*
X13458Y15289D01*
X13615Y15225D01*
X13665Y15225D01*
X13870Y15020D01*
X13870Y15020D01*
X13975Y14949D01*
X13975Y14949D01*
X14075Y14929D01*
X14099Y14925D01*
X14099Y14925D01*
X14100Y14925D01*
X15425Y14925D01*
X15424Y14765D01*
X15489Y14609D01*
X15525Y14574D01*
X15525Y14550D01*
X15549Y14425D01*
X15620Y14320D01*
X15825Y14115D01*
X15825Y13474D01*
X15665Y13475D01*
X15509Y13410D01*
X15389Y13291D01*
X15325Y13134D01*
X15324Y12965D01*
X15389Y12809D01*
X15425Y12774D01*
X15425Y12326D01*
X15389Y12291D01*
X15325Y12134D01*
X15324Y11965D01*
X15375Y11843D01*
X15359Y11849D01*
X15141Y11850D01*
X14972Y11780D01*
X14941Y11812D01*
X14849Y11850D01*
X14612Y11850D01*
X14550Y11787D01*
X14550Y11350D01*
X14557Y11350D01*
X14557Y11250D01*
X14550Y11250D01*
X14550Y10812D01*
X14612Y10750D01*
X14849Y10749D01*
X14941Y10787D01*
X14973Y10819D01*
X15140Y10750D01*
X15358Y10749D01*
X15561Y10833D01*
X15715Y10988D01*
X15799Y11190D01*
X15800Y11408D01*
X15716Y11611D01*
X15702Y11625D01*
X15834Y11624D01*
X15990Y11689D01*
X16110Y11808D01*
X16174Y11965D01*
X16175Y12125D01*
X19250Y12125D01*
X19325Y12125D01*
X19325Y12084D01*
X19315Y12075D01*
X18650Y12075D01*
X18649Y12075D01*
X18625Y12070D01*
X18525Y12050D01*
X18420Y11979D01*
X18420Y11979D01*
X17815Y11375D01*
X17750Y11375D01*
X17625Y11350D01*
X17583Y11322D01*
X17520Y11279D01*
X17520Y11279D01*
X14450Y8209D01*
X14450Y10812D01*
X14450Y11250D01*
X14442Y11250D01*
X14442Y11350D01*
X14450Y11350D01*
X14450Y11787D01*
X14387Y11850D01*
X14150Y11850D01*
X14058Y11812D01*
X14026Y11780D01*
X13859Y11849D01*
X13641Y11850D01*
X13438Y11766D01*
X13375Y11702D01*
X13311Y11765D01*
X13109Y11849D01*
X12891Y11850D01*
X12688Y11766D01*
X12534Y11611D01*
X12450Y11409D01*
X12449Y11191D01*
X12533Y10988D01*
X12688Y10834D01*
X12890Y10750D01*
X13108Y10749D01*
X13311Y10833D01*
X13374Y10897D01*
X13438Y10834D01*
X13640Y10750D01*
X13858Y10749D01*
X14027Y10819D01*
X14058Y10787D01*
X14150Y10749D01*
X14387Y10750D01*
X14450Y10812D01*
X14450Y8209D01*
X12920Y6679D01*
X12849Y6574D01*
X12833Y6493D01*
X12833Y6493D01*
X12554Y6214D01*
X12554Y7968D01*
X12543Y8186D01*
X12481Y8337D01*
X12385Y8365D01*
X12315Y8294D01*
X12315Y8435D01*
X12287Y8531D01*
X12081Y8604D01*
X11863Y8593D01*
X11712Y8531D01*
X11684Y8435D01*
X12000Y8120D01*
X12315Y8435D01*
X12315Y8294D01*
X12070Y8050D01*
X12385Y7734D01*
X12481Y7762D01*
X12554Y7968D01*
X12554Y6214D01*
X12550Y6209D01*
X12550Y6799D01*
X12550Y7399D01*
X12512Y7491D01*
X12441Y7561D01*
X12349Y7599D01*
X12296Y7600D01*
X12315Y7664D01*
X12000Y7979D01*
X11929Y7908D01*
X11929Y8050D01*
X11614Y8365D01*
X11518Y8337D01*
X11445Y8131D01*
X11456Y7913D01*
X11518Y7762D01*
X11614Y7734D01*
X11929Y8050D01*
X11929Y7908D01*
X11684Y7664D01*
X11703Y7600D01*
X11650Y7600D01*
X11558Y7562D01*
X11488Y7491D01*
X11450Y7399D01*
X11449Y7300D01*
X11449Y6700D01*
X11487Y6608D01*
X11558Y6538D01*
X11650Y6500D01*
X11749Y6499D01*
X12349Y6499D01*
X12441Y6537D01*
X12511Y6608D01*
X12549Y6700D01*
X12550Y6799D01*
X12550Y6209D01*
X12420Y6079D01*
X12349Y5974D01*
X12325Y5850D01*
X12325Y5350D01*
X12325Y4826D01*
X12289Y4791D01*
X12225Y4634D01*
X12224Y4465D01*
X12289Y4309D01*
X12408Y4189D01*
X12565Y4125D01*
X12734Y4124D01*
X12890Y4189D01*
X12950Y4248D01*
X12950Y2900D01*
X11675Y2900D01*
X11675Y3953D01*
X11595Y4147D01*
X11447Y4294D01*
X11375Y4324D01*
X11375Y4324D01*
X11474Y4325D01*
X11566Y4363D01*
X11637Y4433D01*
X11675Y4525D01*
X11675Y5174D01*
X11637Y5266D01*
X11566Y5336D01*
X11474Y5374D01*
X11375Y5375D01*
X11262Y5375D01*
X11200Y5312D01*
X11200Y4900D01*
X11612Y4900D01*
X11675Y4962D01*
X11675Y5174D01*
X11675Y4525D01*
X11675Y4737D01*
X11612Y4800D01*
X11200Y4800D01*
X11200Y4792D01*
X11100Y4792D01*
X11100Y4800D01*
X11100Y4900D01*
X11100Y5312D01*
X11037Y5375D01*
X10924Y5375D01*
X10904Y5375D01*
X10904Y13668D01*
X10893Y13886D01*
X10831Y14037D01*
X10735Y14065D01*
X10665Y13994D01*
X10665Y14135D01*
X10637Y14231D01*
X10431Y14304D01*
X10213Y14293D01*
X10062Y14231D01*
X10034Y14135D01*
X10350Y13820D01*
X10665Y14135D01*
X10665Y13994D01*
X10420Y13750D01*
X10735Y13434D01*
X10831Y13462D01*
X10904Y13668D01*
X10904Y5375D01*
X10900Y5375D01*
X10900Y12499D01*
X10900Y13099D01*
X10862Y13191D01*
X10791Y13261D01*
X10699Y13299D01*
X10646Y13300D01*
X10665Y13364D01*
X10350Y13679D01*
X10279Y13608D01*
X10279Y13750D01*
X9964Y14065D01*
X9868Y14037D01*
X9795Y13831D01*
X9806Y13613D01*
X9868Y13462D01*
X9964Y13434D01*
X10279Y13750D01*
X10279Y13608D01*
X10034Y13364D01*
X10053Y13300D01*
X10000Y13300D01*
X9908Y13262D01*
X9838Y13191D01*
X9800Y13099D01*
X9799Y13000D01*
X9799Y12400D01*
X9837Y12308D01*
X9908Y12238D01*
X10000Y12200D01*
X10099Y12199D01*
X10699Y12199D01*
X10791Y12237D01*
X10861Y12308D01*
X10899Y12400D01*
X10900Y12499D01*
X10900Y5375D01*
X10825Y5374D01*
X10733Y5336D01*
X10662Y5266D01*
X10624Y5174D01*
X10625Y4962D01*
X10687Y4900D01*
X11100Y4900D01*
X11100Y4800D01*
X10687Y4800D01*
X10625Y4737D01*
X10624Y4525D01*
X10662Y4433D01*
X10733Y4363D01*
X10825Y4325D01*
X10924Y4324D01*
X10924Y4324D01*
X10853Y4295D01*
X10705Y4147D01*
X10625Y3954D01*
X10624Y3746D01*
X10704Y3553D01*
X10852Y3405D01*
X11045Y3325D01*
X11253Y3324D01*
X11447Y3404D01*
X11594Y3552D01*
X11674Y3745D01*
X11675Y3953D01*
X11675Y2900D01*
X10100Y2900D01*
X10100Y10758D01*
X10016Y10961D01*
X9861Y11115D01*
X9659Y11199D01*
X9441Y11200D01*
X9238Y11116D01*
X9084Y10961D01*
X9000Y10759D01*
X8999Y10541D01*
X9083Y10338D01*
X9238Y10184D01*
X9440Y10100D01*
X9658Y10099D01*
X9861Y10183D01*
X10015Y10338D01*
X10099Y10540D01*
X10100Y10758D01*
X10100Y2900D01*
X10100Y2900D01*
X10100Y8300D01*
X10100Y8999D01*
X10062Y9091D01*
X9991Y9161D01*
X9899Y9199D01*
X9800Y9200D01*
X9662Y9200D01*
X9600Y9137D01*
X9600Y8700D01*
X10037Y8700D01*
X10100Y8762D01*
X10100Y8999D01*
X10100Y8300D01*
X10100Y8537D01*
X10037Y8600D01*
X9600Y8600D01*
X9600Y8162D01*
X9662Y8100D01*
X9800Y8099D01*
X9899Y8100D01*
X9991Y8138D01*
X10062Y8208D01*
X10100Y8300D01*
X10100Y2900D01*
X9500Y2900D01*
X9500Y8162D01*
X9500Y8600D01*
X9500Y8700D01*
X9500Y9137D01*
X9437Y9200D01*
X9299Y9200D01*
X9200Y9199D01*
X9108Y9161D01*
X9037Y9091D01*
X8999Y8999D01*
X9000Y8762D01*
X9062Y8700D01*
X9500Y8700D01*
X9500Y8600D01*
X9062Y8600D01*
X9000Y8537D01*
X8999Y8300D01*
X9037Y8208D01*
X9108Y8138D01*
X9200Y8100D01*
X9299Y8099D01*
X9437Y8100D01*
X9500Y8162D01*
X9500Y2900D01*
X8100Y2900D01*
X7946Y2869D01*
X7903Y2840D01*
X7817Y2782D01*
X7275Y2240D01*
X7275Y4653D01*
X7275Y7153D01*
X7195Y7347D01*
X7047Y7494D01*
X6854Y7574D01*
X6750Y7574D01*
X6750Y9468D01*
X6750Y11468D01*
X6658Y11689D01*
X6490Y11858D01*
X6269Y11949D01*
X6031Y11950D01*
X5810Y11858D01*
X5641Y11690D01*
X5550Y11469D01*
X5549Y11231D01*
X5641Y11010D01*
X5715Y10935D01*
X5658Y10912D01*
X5588Y10841D01*
X5550Y10749D01*
X5549Y10650D01*
X5550Y10462D01*
X5612Y10400D01*
X6100Y10400D01*
X6100Y10407D01*
X6200Y10407D01*
X6200Y10400D01*
X6687Y10400D01*
X6750Y10462D01*
X6750Y10650D01*
X6749Y10749D01*
X6711Y10841D01*
X6641Y10912D01*
X6584Y10935D01*
X6658Y11009D01*
X6749Y11230D01*
X6750Y11468D01*
X6750Y9468D01*
X6658Y9689D01*
X6584Y9764D01*
X6641Y9787D01*
X6711Y9858D01*
X6749Y9950D01*
X6750Y10049D01*
X6750Y10237D01*
X6687Y10300D01*
X6200Y10300D01*
X6200Y10292D01*
X6100Y10292D01*
X6100Y10300D01*
X5612Y10300D01*
X5550Y10237D01*
X5549Y10049D01*
X5550Y9950D01*
X5588Y9858D01*
X5658Y9787D01*
X5715Y9764D01*
X5641Y9690D01*
X5550Y9469D01*
X5549Y9231D01*
X5641Y9010D01*
X5809Y8841D01*
X6030Y8750D01*
X6268Y8749D01*
X6489Y8841D01*
X6658Y9009D01*
X6749Y9230D01*
X6750Y9468D01*
X6750Y7574D01*
X6646Y7575D01*
X6453Y7495D01*
X6305Y7347D01*
X6275Y7275D01*
X6275Y7374D01*
X6237Y7466D01*
X6166Y7536D01*
X6074Y7574D01*
X5975Y7575D01*
X5425Y7575D01*
X5333Y7537D01*
X5263Y7466D01*
X5225Y7374D01*
X5224Y7275D01*
X5224Y6725D01*
X5262Y6633D01*
X5333Y6563D01*
X5425Y6525D01*
X5524Y6524D01*
X5524Y6524D01*
X5453Y6495D01*
X5305Y6347D01*
X5225Y6154D01*
X5224Y5946D01*
X5304Y5753D01*
X5452Y5605D01*
X5645Y5525D01*
X5853Y5524D01*
X6047Y5604D01*
X6194Y5752D01*
X6224Y5824D01*
X6224Y5725D01*
X6262Y5633D01*
X6333Y5563D01*
X6425Y5525D01*
X6524Y5524D01*
X6637Y5525D01*
X6700Y5587D01*
X6700Y6000D01*
X6692Y6000D01*
X6692Y6100D01*
X6700Y6100D01*
X6700Y6107D01*
X6800Y6107D01*
X6800Y6100D01*
X7212Y6100D01*
X7275Y6162D01*
X7275Y6374D01*
X7237Y6466D01*
X7166Y6536D01*
X7074Y6574D01*
X6975Y6575D01*
X6975Y6575D01*
X7047Y6604D01*
X7194Y6752D01*
X7274Y6945D01*
X7275Y7153D01*
X7275Y4653D01*
X7275Y4654D01*
X7275Y5725D01*
X7275Y5937D01*
X7212Y6000D01*
X6800Y6000D01*
X6800Y5587D01*
X6862Y5525D01*
X6975Y5524D01*
X7074Y5525D01*
X7166Y5563D01*
X7237Y5633D01*
X7275Y5725D01*
X7275Y4654D01*
X7195Y4847D01*
X7047Y4994D01*
X6854Y5074D01*
X6646Y5075D01*
X6453Y4995D01*
X6305Y4847D01*
X6249Y4714D01*
X6195Y4847D01*
X6047Y4994D01*
X5854Y5074D01*
X5646Y5075D01*
X5453Y4995D01*
X5305Y4847D01*
X5225Y4654D01*
X5224Y4446D01*
X5304Y4253D01*
X5452Y4105D01*
X5524Y4075D01*
X5425Y4075D01*
X5333Y4037D01*
X5263Y3966D01*
X5225Y3874D01*
X5224Y3775D01*
X5224Y3225D01*
X5262Y3133D01*
X5333Y3063D01*
X5425Y3025D01*
X5524Y3024D01*
X6074Y3024D01*
X6166Y3062D01*
X6236Y3133D01*
X6249Y3164D01*
X6262Y3133D01*
X6333Y3063D01*
X6425Y3025D01*
X6524Y3024D01*
X6637Y3025D01*
X6700Y3087D01*
X6700Y3500D01*
X6692Y3500D01*
X6692Y3600D01*
X6700Y3600D01*
X6700Y3607D01*
X6800Y3607D01*
X6800Y3600D01*
X7212Y3600D01*
X7275Y3662D01*
X7275Y3874D01*
X7237Y3966D01*
X7166Y4036D01*
X7074Y4074D01*
X6975Y4075D01*
X6975Y4075D01*
X7047Y4104D01*
X7194Y4252D01*
X7274Y4445D01*
X7275Y4653D01*
X7275Y2240D01*
X7275Y2240D01*
X7275Y3225D01*
X7275Y3437D01*
X7212Y3500D01*
X6800Y3500D01*
X6800Y3087D01*
X6862Y3025D01*
X6975Y3024D01*
X7074Y3025D01*
X7166Y3063D01*
X7237Y3133D01*
X7275Y3225D01*
X7275Y2240D01*
X6784Y1750D01*
X6698Y1750D01*
X6590Y1858D01*
X6369Y1949D01*
X6131Y1950D01*
X5910Y1858D01*
X5741Y1690D01*
X5650Y1469D01*
X5649Y1231D01*
X5741Y1010D01*
X5815Y935D01*
X5758Y912D01*
X5688Y841D01*
X5650Y749D01*
X5649Y650D01*
X5650Y462D01*
X5712Y400D01*
X6200Y400D01*
X6200Y407D01*
X6300Y407D01*
X6300Y400D01*
X6787Y400D01*
X6850Y462D01*
X6850Y650D01*
X6849Y749D01*
X6811Y841D01*
X6741Y912D01*
X6684Y935D01*
X6698Y950D01*
X6950Y950D01*
X6950Y950D01*
X7077Y975D01*
X7103Y980D01*
X7103Y980D01*
X7232Y1067D01*
X8265Y2100D01*
X9061Y2100D01*
X9018Y2087D01*
X8945Y1881D01*
X8956Y1663D01*
X9018Y1512D01*
X9114Y1484D01*
X9429Y1800D01*
X9423Y1805D01*
X9494Y1876D01*
X9500Y1870D01*
X9505Y1876D01*
X9576Y1805D01*
X9570Y1800D01*
X9885Y1484D01*
X9981Y1512D01*
X10054Y1718D01*
X10043Y1936D01*
X9981Y2087D01*
X9938Y2100D01*
X13200Y2100D01*
X13200Y2100D01*
X13327Y2125D01*
X13353Y2130D01*
X13353Y2130D01*
X13482Y2217D01*
X13632Y2367D01*
X13632Y2367D01*
X13690Y2453D01*
X13719Y2496D01*
X13719Y2496D01*
X13749Y2650D01*
X13750Y2650D01*
X13750Y4131D01*
X13765Y4125D01*
X13934Y4124D01*
X14090Y4189D01*
X14210Y4308D01*
X14274Y4465D01*
X14275Y4634D01*
X14210Y4790D01*
X14175Y4825D01*
X14175Y5354D01*
X14245Y5325D01*
X14453Y5324D01*
X14647Y5404D01*
X14794Y5552D01*
X14850Y5685D01*
X14904Y5553D01*
X15052Y5405D01*
X15245Y5325D01*
X15453Y5324D01*
X15525Y5354D01*
X15525Y5126D01*
X15489Y5091D01*
X15425Y4934D01*
X15424Y4765D01*
X15489Y4609D01*
X15608Y4489D01*
X15765Y4425D01*
X15850Y4425D01*
X15934Y4424D01*
X16025Y4462D01*
X16025Y3669D01*
X15980Y3603D01*
X15950Y3450D01*
X15980Y3296D01*
X16067Y3167D01*
X16950Y2284D01*
X16950Y192D01*
X16905Y147D01*
X16849Y14D01*
X16795Y147D01*
X16647Y294D01*
X16454Y374D01*
X16246Y375D01*
X16053Y295D01*
X15905Y147D01*
X15849Y14D01*
X15795Y147D01*
X15647Y294D01*
X15454Y374D01*
X15246Y375D01*
X15053Y295D01*
X14905Y147D01*
X14849Y14D01*
X14795Y147D01*
X14647Y294D01*
X14454Y374D01*
X14246Y375D01*
X14053Y295D01*
X13905Y147D01*
X13849Y14D01*
X13795Y147D01*
X13647Y294D01*
X13454Y374D01*
X13246Y375D01*
X13053Y295D01*
X12905Y147D01*
X12825Y-45D01*
X12824Y-253D01*
X12904Y-447D01*
X12914Y-457D01*
X12796Y-480D01*
X12796Y-480D01*
X12796Y-480D01*
X12667Y-567D01*
X12267Y-967D01*
X12180Y-1096D01*
X12175Y-1122D01*
X12150Y-1250D01*
X12150Y-2205D01*
X12125Y-2265D01*
X12124Y-2434D01*
X12189Y-2590D01*
X12308Y-2710D01*
X12465Y-2774D01*
X12634Y-2775D01*
X12790Y-2710D01*
X12910Y-2591D01*
X12974Y-2434D01*
X12975Y-2304D01*
X13054Y-2497D01*
X13202Y-2644D01*
X13395Y-2724D01*
X13603Y-2725D01*
X13797Y-2645D01*
X13944Y-2497D01*
X14000Y-2364D01*
X14054Y-2497D01*
X14202Y-2644D01*
X14395Y-2724D01*
X14603Y-2725D01*
X14797Y-2645D01*
X14944Y-2497D01*
X15000Y-2364D01*
X15054Y-2497D01*
X15202Y-2644D01*
X15395Y-2724D01*
X15603Y-2725D01*
X15797Y-2645D01*
X15944Y-2497D01*
X16000Y-2364D01*
X16054Y-2497D01*
X16202Y-2644D01*
X16395Y-2724D01*
X16603Y-2725D01*
X16797Y-2645D01*
X16944Y-2497D01*
X17024Y-2304D01*
X17025Y-2096D01*
X16945Y-1903D01*
X16797Y-1755D01*
X16604Y-1675D01*
X16396Y-1674D01*
X16203Y-1754D01*
X16055Y-1902D01*
X15999Y-2035D01*
X15945Y-1903D01*
X15797Y-1755D01*
X15604Y-1675D01*
X15396Y-1674D01*
X15203Y-1754D01*
X15055Y-1902D01*
X14999Y-2035D01*
X14945Y-1903D01*
X14797Y-1755D01*
X14604Y-1675D01*
X14396Y-1674D01*
X14203Y-1754D01*
X14055Y-1902D01*
X13999Y-2035D01*
X13945Y-1903D01*
X13797Y-1755D01*
X13604Y-1675D01*
X13396Y-1674D01*
X13203Y-1754D01*
X13055Y-1902D01*
X12975Y-2095D01*
X12974Y-2265D01*
X12950Y-2205D01*
X12950Y-1415D01*
X13115Y-1250D01*
X16650Y-1250D01*
X16650Y-1249D01*
X16777Y-1224D01*
X16803Y-1219D01*
X16803Y-1219D01*
X16932Y-1132D01*
X17390Y-675D01*
X17453Y-675D01*
X17647Y-595D01*
X17794Y-447D01*
X17850Y-314D01*
X17904Y-447D01*
X18052Y-594D01*
X18245Y-674D01*
X18453Y-675D01*
X18647Y-595D01*
X18794Y-447D01*
X18850Y-314D01*
X18904Y-447D01*
X19052Y-594D01*
X19245Y-674D01*
X19453Y-675D01*
X19647Y-595D01*
X19794Y-447D01*
X19850Y-314D01*
X19904Y-447D01*
X20052Y-594D01*
X20245Y-674D01*
X20453Y-675D01*
X20647Y-595D01*
X20794Y-447D01*
X20850Y-314D01*
X20904Y-447D01*
X21052Y-594D01*
X21245Y-674D01*
X21453Y-675D01*
X21647Y-595D01*
X21794Y-447D01*
X21850Y-314D01*
X21904Y-447D01*
X22052Y-594D01*
X22245Y-674D01*
X22453Y-675D01*
X22647Y-595D01*
X22794Y-447D01*
X22850Y-314D01*
X22904Y-447D01*
X23052Y-594D01*
X23245Y-674D01*
X23453Y-675D01*
X23647Y-595D01*
X23794Y-447D01*
X23850Y-314D01*
X23904Y-447D01*
X24052Y-594D01*
X24245Y-674D01*
X24453Y-675D01*
X24647Y-595D01*
X24794Y-447D01*
X24850Y-314D01*
X24904Y-447D01*
X25052Y-594D01*
X25245Y-674D01*
X25453Y-675D01*
X25647Y-595D01*
X25794Y-447D01*
X25824Y-375D01*
X25824Y-375D01*
X25825Y-474D01*
X25863Y-566D01*
X25933Y-637D01*
X26025Y-675D01*
X26237Y-675D01*
X26300Y-612D01*
X26300Y-200D01*
X26292Y-200D01*
X26292Y-100D01*
X26300Y-100D01*
X26300Y312D01*
X26237Y375D01*
X26025Y375D01*
X25933Y337D01*
X25863Y266D01*
X25825Y174D01*
X25824Y75D01*
X25824Y75D01*
X25795Y147D01*
X25685Y257D01*
X25873Y425D01*
X27950Y425D01*
X28074Y449D01*
X28074Y449D01*
X28179Y520D01*
X28979Y1320D01*
X28979Y1320D01*
X28979Y1320D01*
X29050Y1425D01*
X29050Y1425D01*
X29070Y1525D01*
X29075Y1549D01*
X29075Y-2040D01*
X28845Y-1810D01*
X28459Y-1650D01*
X28042Y-1649D01*
X27656Y-1809D01*
X27360Y-2104D01*
X27200Y-2490D01*
X27199Y-2907D01*
X27359Y-3294D01*
X27654Y-3589D01*
X27849Y-3670D01*
X26875Y-3670D01*
X26875Y-375D01*
X26875Y75D01*
X26874Y174D01*
X26836Y266D01*
X26766Y337D01*
X26674Y375D01*
X26462Y375D01*
X26400Y312D01*
X26400Y-100D01*
X26812Y-100D01*
X26875Y-37D01*
X26875Y75D01*
X26875Y-375D01*
X26875Y-262D01*
X26812Y-200D01*
X26400Y-200D01*
X26400Y-612D01*
X26462Y-675D01*
X26674Y-675D01*
X26766Y-637D01*
X26836Y-566D01*
X26874Y-474D01*
X26875Y-375D01*
X26875Y-3670D01*
X10050Y-3670D01*
X10050Y-450D01*
X10050Y149D01*
X10012Y241D01*
X9941Y311D01*
X9849Y349D01*
X9815Y349D01*
X9815Y1414D01*
X9500Y1729D01*
X9184Y1414D01*
X9212Y1318D01*
X9418Y1245D01*
X9636Y1256D01*
X9787Y1318D01*
X9815Y1414D01*
X9815Y349D01*
X9750Y350D01*
X9150Y350D01*
X9058Y312D01*
X8988Y241D01*
X8950Y149D01*
X8949Y50D01*
X8949Y-549D01*
X8987Y-641D01*
X9058Y-711D01*
X9150Y-749D01*
X9249Y-750D01*
X9849Y-750D01*
X9941Y-712D01*
X10011Y-641D01*
X10049Y-549D01*
X10050Y-450D01*
X10050Y-3670D01*
X6850Y-3670D01*
X6850Y-531D01*
X6758Y-310D01*
X6684Y-235D01*
X6741Y-212D01*
X6811Y-141D01*
X6849Y-49D01*
X6850Y49D01*
X6850Y237D01*
X6787Y300D01*
X6300Y300D01*
X6300Y292D01*
X6200Y292D01*
X6200Y300D01*
X5712Y300D01*
X5650Y237D01*
X5649Y49D01*
X5650Y-49D01*
X5688Y-141D01*
X5758Y-212D01*
X5815Y-235D01*
X5741Y-309D01*
X5650Y-530D01*
X5649Y-768D01*
X5741Y-989D01*
X5909Y-1158D01*
X6130Y-1249D01*
X6368Y-1250D01*
X6589Y-1158D01*
X6758Y-990D01*
X6849Y-769D01*
X6850Y-531D01*
X6850Y-3670D01*
X5650Y-3670D01*
X5844Y-3590D01*
X6139Y-3295D01*
X6299Y-2909D01*
X6300Y-2492D01*
X6140Y-2106D01*
X5845Y-1810D01*
X5459Y-1650D01*
X5042Y-1649D01*
X4656Y-1809D01*
X4360Y-2104D01*
X4279Y-2299D01*
X4279Y15649D01*
X4359Y15456D01*
X4654Y15160D01*
X5040Y15000D01*
X5457Y14999D01*
X5844Y15159D01*
X6139Y15454D01*
X6299Y15840D01*
X6300Y16257D01*
X6140Y16644D01*
X5845Y16939D01*
X5650Y17020D01*
X27849Y17020D01*
X27656Y16940D01*
X27360Y16645D01*
X27200Y16259D01*
X27199Y15842D01*
X27359Y15456D01*
X27654Y15160D01*
X28040Y15000D01*
X28457Y14999D01*
X28844Y15159D01*
X29139Y15454D01*
X29220Y15649D01*
X29220Y-2299D01*
X29220Y-2299D01*
G37*
G54D23*
X29220Y-2299D02*
X29140Y-2106D01*
X29075Y-2040D01*
X29075Y1549D01*
X29074Y1550D01*
X29075Y1550D01*
X29075Y8050D01*
X29075Y8800D01*
X29050Y8924D01*
X29050Y8924D01*
X28979Y9029D01*
X28979Y9029D01*
X28299Y9709D01*
X28300Y9908D01*
X28216Y10111D01*
X28061Y10265D01*
X27980Y10299D01*
X28061Y10333D01*
X28215Y10488D01*
X28299Y10690D01*
X28300Y10908D01*
X28216Y11111D01*
X28061Y11265D01*
X27980Y11299D01*
X28061Y11333D01*
X28215Y11488D01*
X28299Y11690D01*
X28300Y11908D01*
X28216Y12111D01*
X28061Y12265D01*
X28040Y12274D01*
X28084Y12274D01*
X28240Y12339D01*
X28360Y12458D01*
X28424Y12615D01*
X28425Y12784D01*
X28360Y12940D01*
X28241Y13060D01*
X28084Y13124D01*
X27915Y13125D01*
X27855Y13100D01*
X22994Y13100D01*
X22934Y13124D01*
X22765Y13125D01*
X22609Y13060D01*
X22489Y12941D01*
X22425Y12784D01*
X22424Y12634D01*
X22329Y12729D01*
X22224Y12800D01*
X22100Y12825D01*
X21400Y12825D01*
X21275Y12800D01*
X21170Y12729D01*
X21170Y12729D01*
X21065Y12625D01*
X20816Y12625D01*
X20874Y12765D01*
X20875Y12934D01*
X20810Y13090D01*
X20775Y13124D01*
X20860Y13208D01*
X20924Y13365D01*
X20925Y13500D01*
X24850Y13500D01*
X24850Y13500D01*
X24977Y13525D01*
X25003Y13530D01*
X25003Y13530D01*
X25132Y13617D01*
X25782Y14267D01*
X25782Y14267D01*
X25840Y14353D01*
X25869Y14396D01*
X25869Y14396D01*
X25877Y14434D01*
X25877Y14434D01*
X25944Y14502D01*
X26000Y14635D01*
X26054Y14503D01*
X26202Y14355D01*
X26395Y14275D01*
X26603Y14274D01*
X26797Y14354D01*
X26944Y14502D01*
X27024Y14695D01*
X27025Y14903D01*
X26945Y15097D01*
X26797Y15244D01*
X26604Y15324D01*
X26396Y15325D01*
X26203Y15245D01*
X26055Y15097D01*
X25999Y14964D01*
X25945Y15097D01*
X25797Y15244D01*
X25604Y15324D01*
X25396Y15325D01*
X25203Y15245D01*
X25055Y15097D01*
X24999Y14964D01*
X24945Y15097D01*
X24900Y15142D01*
X24900Y15150D01*
X24869Y15303D01*
X24869Y15303D01*
X24840Y15346D01*
X24782Y15432D01*
X24782Y15432D01*
X24132Y16082D01*
X24003Y16169D01*
X23977Y16174D01*
X23850Y16200D01*
X20900Y16200D01*
X20746Y16169D01*
X20746Y16169D01*
X20746Y16169D01*
X20617Y16082D01*
X20267Y15732D01*
X20180Y15603D01*
X20175Y15577D01*
X20150Y15450D01*
X20150Y15365D01*
X19984Y15200D01*
X19842Y15200D01*
X19797Y15244D01*
X19604Y15324D01*
X19396Y15325D01*
X19203Y15245D01*
X19055Y15097D01*
X18975Y14904D01*
X18974Y14696D01*
X19054Y14503D01*
X19202Y14355D01*
X19335Y14299D01*
X19203Y14245D01*
X19055Y14097D01*
X18975Y13904D01*
X18974Y13696D01*
X19024Y13575D01*
X17384Y13575D01*
X17325Y13634D01*
X17325Y14550D01*
X17324Y14550D01*
X17325Y14550D01*
X17320Y14574D01*
X17300Y14674D01*
X17300Y14674D01*
X17229Y14779D01*
X17229Y14779D01*
X16529Y15479D01*
X16424Y15550D01*
X16300Y15575D01*
X14234Y15575D01*
X14125Y15684D01*
X14125Y15734D01*
X14060Y15890D01*
X13941Y16010D01*
X13784Y16074D01*
X13615Y16075D01*
X13459Y16010D01*
X13339Y15891D01*
X13275Y15734D01*
X13274Y15565D01*
X13339Y15409D01*
X13458Y15289D01*
X13615Y15225D01*
X13665Y15225D01*
X13870Y15020D01*
X13870Y15020D01*
X13975Y14949D01*
X13975Y14949D01*
X14075Y14929D01*
X14099Y14925D01*
X14099Y14925D01*
X14100Y14925D01*
X15425Y14925D01*
X15424Y14765D01*
X15489Y14609D01*
X15525Y14574D01*
X15525Y14550D01*
X15549Y14425D01*
X15620Y14320D01*
X15825Y14115D01*
X15825Y13474D01*
X15665Y13475D01*
X15509Y13410D01*
X15389Y13291D01*
X15325Y13134D01*
X15324Y12965D01*
X15389Y12809D01*
X15425Y12774D01*
X15425Y12326D01*
X15389Y12291D01*
X15325Y12134D01*
X15324Y11965D01*
X15375Y11843D01*
X15359Y11849D01*
X15141Y11850D01*
X14972Y11780D01*
X14941Y11812D01*
X14849Y11850D01*
X14612Y11850D01*
X14550Y11787D01*
X14550Y11350D01*
X14557Y11350D01*
X14557Y11250D01*
X14550Y11250D01*
X14550Y10812D01*
X14612Y10750D01*
X14849Y10749D01*
X14941Y10787D01*
X14973Y10819D01*
X15140Y10750D01*
X15358Y10749D01*
X15561Y10833D01*
X15715Y10988D01*
X15799Y11190D01*
X15800Y11408D01*
X15716Y11611D01*
X15702Y11625D01*
X15834Y11624D01*
X15990Y11689D01*
X16110Y11808D01*
X16174Y11965D01*
X16175Y12125D01*
X19250Y12125D01*
X19325Y12125D01*
X19325Y12084D01*
X19315Y12075D01*
X18650Y12075D01*
X18649Y12075D01*
X18625Y12070D01*
X18525Y12050D01*
X18420Y11979D01*
X18420Y11979D01*
X17815Y11375D01*
X17750Y11375D01*
X17625Y11350D01*
X17583Y11322D01*
X17520Y11279D01*
X17520Y11279D01*
X14450Y8209D01*
X14450Y10812D01*
X14450Y11250D01*
X14442Y11250D01*
X14442Y11350D01*
X14450Y11350D01*
X14450Y11787D01*
X14387Y11850D01*
X14150Y11850D01*
X14058Y11812D01*
X14026Y11780D01*
X13859Y11849D01*
X13641Y11850D01*
X13438Y11766D01*
X13375Y11702D01*
X13311Y11765D01*
X13109Y11849D01*
X12891Y11850D01*
X12688Y11766D01*
X12534Y11611D01*
X12450Y11409D01*
X12449Y11191D01*
X12533Y10988D01*
X12688Y10834D01*
X12890Y10750D01*
X13108Y10749D01*
X13311Y10833D01*
X13374Y10897D01*
X13438Y10834D01*
X13640Y10750D01*
X13858Y10749D01*
X14027Y10819D01*
X14058Y10787D01*
X14150Y10749D01*
X14387Y10750D01*
X14450Y10812D01*
X14450Y8209D01*
X12920Y6679D01*
X12849Y6574D01*
X12833Y6493D01*
X12833Y6493D01*
X12554Y6214D01*
X12554Y7968D01*
X12543Y8186D01*
X12481Y8337D01*
X12385Y8365D01*
X12315Y8294D01*
X12315Y8435D01*
X12287Y8531D01*
X12081Y8604D01*
X11863Y8593D01*
X11712Y8531D01*
X11684Y8435D01*
X12000Y8120D01*
X12315Y8435D01*
X12315Y8294D01*
X12070Y8050D01*
X12385Y7734D01*
X12481Y7762D01*
X12554Y7968D01*
X12554Y6214D01*
X12550Y6209D01*
X12550Y6799D01*
X12550Y7399D01*
X12512Y7491D01*
X12441Y7561D01*
X12349Y7599D01*
X12296Y7600D01*
X12315Y7664D01*
X12000Y7979D01*
X11929Y7908D01*
X11929Y8050D01*
X11614Y8365D01*
X11518Y8337D01*
X11445Y8131D01*
X11456Y7913D01*
X11518Y7762D01*
X11614Y7734D01*
X11929Y8050D01*
X11929Y7908D01*
X11684Y7664D01*
X11703Y7600D01*
X11650Y7600D01*
X11558Y7562D01*
X11488Y7491D01*
X11450Y7399D01*
X11449Y7300D01*
X11449Y6700D01*
X11487Y6608D01*
X11558Y6538D01*
X11650Y6500D01*
X11749Y6499D01*
X12349Y6499D01*
X12441Y6537D01*
X12511Y6608D01*
X12549Y6700D01*
X12550Y6799D01*
X12550Y6209D01*
X12420Y6079D01*
X12349Y5974D01*
X12325Y5850D01*
X12325Y5350D01*
X12325Y4826D01*
X12289Y4791D01*
X12225Y4634D01*
X12224Y4465D01*
X12289Y4309D01*
X12408Y4189D01*
X12565Y4125D01*
X12734Y4124D01*
X12890Y4189D01*
X12950Y4248D01*
X12950Y2900D01*
X11675Y2900D01*
X11675Y3953D01*
X11595Y4147D01*
X11447Y4294D01*
X11375Y4324D01*
X11375Y4324D01*
X11474Y4325D01*
X11566Y4363D01*
X11637Y4433D01*
X11675Y4525D01*
X11675Y5174D01*
X11637Y5266D01*
X11566Y5336D01*
X11474Y5374D01*
X11375Y5375D01*
X11262Y5375D01*
X11200Y5312D01*
X11200Y4900D01*
X11612Y4900D01*
X11675Y4962D01*
X11675Y5174D01*
X11675Y4525D01*
X11675Y4737D01*
X11612Y4800D01*
X11200Y4800D01*
X11200Y4792D01*
X11100Y4792D01*
X11100Y4800D01*
X11100Y4900D01*
X11100Y5312D01*
X11037Y5375D01*
X10924Y5375D01*
X10904Y5375D01*
X10904Y13668D01*
X10893Y13886D01*
X10831Y14037D01*
X10735Y14065D01*
X10665Y13994D01*
X10665Y14135D01*
X10637Y14231D01*
X10431Y14304D01*
X10213Y14293D01*
X10062Y14231D01*
X10034Y14135D01*
X10350Y13820D01*
X10665Y14135D01*
X10665Y13994D01*
X10420Y13750D01*
X10735Y13434D01*
X10831Y13462D01*
X10904Y13668D01*
X10904Y5375D01*
X10900Y5375D01*
X10900Y12499D01*
X10900Y13099D01*
X10862Y13191D01*
X10791Y13261D01*
X10699Y13299D01*
X10646Y13300D01*
X10665Y13364D01*
X10350Y13679D01*
X10279Y13608D01*
X10279Y13750D01*
X9964Y14065D01*
X9868Y14037D01*
X9795Y13831D01*
X9806Y13613D01*
X9868Y13462D01*
X9964Y13434D01*
X10279Y13750D01*
X10279Y13608D01*
X10034Y13364D01*
X10053Y13300D01*
X10000Y13300D01*
X9908Y13262D01*
X9838Y13191D01*
X9800Y13099D01*
X9799Y13000D01*
X9799Y12400D01*
X9837Y12308D01*
X9908Y12238D01*
X10000Y12200D01*
X10099Y12199D01*
X10699Y12199D01*
X10791Y12237D01*
X10861Y12308D01*
X10899Y12400D01*
X10900Y12499D01*
X10900Y5375D01*
X10825Y5374D01*
X10733Y5336D01*
X10662Y5266D01*
X10624Y5174D01*
X10625Y4962D01*
X10687Y4900D01*
X11100Y4900D01*
X11100Y4800D01*
X10687Y4800D01*
X10625Y4737D01*
X10624Y4525D01*
X10662Y4433D01*
X10733Y4363D01*
X10825Y4325D01*
X10924Y4324D01*
X10924Y4324D01*
X10853Y4295D01*
X10705Y4147D01*
X10625Y3954D01*
X10624Y3746D01*
X10704Y3553D01*
X10852Y3405D01*
X11045Y3325D01*
X11253Y3324D01*
X11447Y3404D01*
X11594Y3552D01*
X11674Y3745D01*
X11675Y3953D01*
X11675Y2900D01*
X10100Y2900D01*
X10100Y10758D01*
X10016Y10961D01*
X9861Y11115D01*
X9659Y11199D01*
X9441Y11200D01*
X9238Y11116D01*
X9084Y10961D01*
X9000Y10759D01*
X8999Y10541D01*
X9083Y10338D01*
X9238Y10184D01*
X9440Y10100D01*
X9658Y10099D01*
X9861Y10183D01*
X10015Y10338D01*
X10099Y10540D01*
X10100Y10758D01*
X10100Y2900D01*
X10100Y2900D01*
X10100Y8300D01*
X10100Y8999D01*
X10062Y9091D01*
X9991Y9161D01*
X9899Y9199D01*
X9800Y9200D01*
X9662Y9200D01*
X9600Y9137D01*
X9600Y8700D01*
X10037Y8700D01*
X10100Y8762D01*
X10100Y8999D01*
X10100Y8300D01*
X10100Y8537D01*
X10037Y8600D01*
X9600Y8600D01*
X9600Y8162D01*
X9662Y8100D01*
X9800Y8099D01*
X9899Y8100D01*
X9991Y8138D01*
X10062Y8208D01*
X10100Y8300D01*
X10100Y2900D01*
X9500Y2900D01*
X9500Y8162D01*
X9500Y8600D01*
X9500Y8700D01*
X9500Y9137D01*
X9437Y9200D01*
X9299Y9200D01*
X9200Y9199D01*
X9108Y9161D01*
X9037Y9091D01*
X8999Y8999D01*
X9000Y8762D01*
X9062Y8700D01*
X9500Y8700D01*
X9500Y8600D01*
X9062Y8600D01*
X9000Y8537D01*
X8999Y8300D01*
X9037Y8208D01*
X9108Y8138D01*
X9200Y8100D01*
X9299Y8099D01*
X9437Y8100D01*
X9500Y8162D01*
X9500Y2900D01*
X8100Y2900D01*
X7946Y2869D01*
X7903Y2840D01*
X7817Y2782D01*
X7275Y2240D01*
X7275Y4653D01*
X7275Y7153D01*
X7195Y7347D01*
X7047Y7494D01*
X6854Y7574D01*
X6750Y7574D01*
X6750Y9468D01*
X6750Y11468D01*
X6658Y11689D01*
X6490Y11858D01*
X6269Y11949D01*
X6031Y11950D01*
X5810Y11858D01*
X5641Y11690D01*
X5550Y11469D01*
X5549Y11231D01*
X5641Y11010D01*
X5715Y10935D01*
X5658Y10912D01*
X5588Y10841D01*
X5550Y10749D01*
X5549Y10650D01*
X5550Y10462D01*
X5612Y10400D01*
X6100Y10400D01*
X6100Y10407D01*
X6200Y10407D01*
X6200Y10400D01*
X6687Y10400D01*
X6750Y10462D01*
X6750Y10650D01*
X6749Y10749D01*
X6711Y10841D01*
X6641Y10912D01*
X6584Y10935D01*
X6658Y11009D01*
X6749Y11230D01*
X6750Y11468D01*
X6750Y9468D01*
X6658Y9689D01*
X6584Y9764D01*
X6641Y9787D01*
X6711Y9858D01*
X6749Y9950D01*
X6750Y10049D01*
X6750Y10237D01*
X6687Y10300D01*
X6200Y10300D01*
X6200Y10292D01*
X6100Y10292D01*
X6100Y10300D01*
X5612Y10300D01*
X5550Y10237D01*
X5549Y10049D01*
X5550Y9950D01*
X5588Y9858D01*
X5658Y9787D01*
X5715Y9764D01*
X5641Y9690D01*
X5550Y9469D01*
X5549Y9231D01*
X5641Y9010D01*
X5809Y8841D01*
X6030Y8750D01*
X6268Y8749D01*
X6489Y8841D01*
X6658Y9009D01*
X6749Y9230D01*
X6750Y9468D01*
X6750Y7574D01*
X6646Y7575D01*
X6453Y7495D01*
X6305Y7347D01*
X6275Y7275D01*
X6275Y7374D01*
X6237Y7466D01*
X6166Y7536D01*
X6074Y7574D01*
X5975Y7575D01*
X5425Y7575D01*
X5333Y7537D01*
X5263Y7466D01*
X5225Y7374D01*
X5224Y7275D01*
X5224Y6725D01*
X5262Y6633D01*
X5333Y6563D01*
X5425Y6525D01*
X5524Y6524D01*
X5524Y6524D01*
X5453Y6495D01*
X5305Y6347D01*
X5225Y6154D01*
X5224Y5946D01*
X5304Y5753D01*
X5452Y5605D01*
X5645Y5525D01*
X5853Y5524D01*
X6047Y5604D01*
X6194Y5752D01*
X6224Y5824D01*
X6224Y5725D01*
X6262Y5633D01*
X6333Y5563D01*
X6425Y5525D01*
X6524Y5524D01*
X6637Y5525D01*
X6700Y5587D01*
X6700Y6000D01*
X6692Y6000D01*
X6692Y6100D01*
X6700Y6100D01*
X6700Y6107D01*
X6800Y6107D01*
X6800Y6100D01*
X7212Y6100D01*
X7275Y6162D01*
X7275Y6374D01*
X7237Y6466D01*
X7166Y6536D01*
X7074Y6574D01*
X6975Y6575D01*
X6975Y6575D01*
X7047Y6604D01*
X7194Y6752D01*
X7274Y6945D01*
X7275Y7153D01*
X7275Y4653D01*
X7275Y4654D01*
X7275Y5725D01*
X7275Y5937D01*
X7212Y6000D01*
X6800Y6000D01*
X6800Y5587D01*
X6862Y5525D01*
X6975Y5524D01*
X7074Y5525D01*
X7166Y5563D01*
X7237Y5633D01*
X7275Y5725D01*
X7275Y4654D01*
X7195Y4847D01*
X7047Y4994D01*
X6854Y5074D01*
X6646Y5075D01*
X6453Y4995D01*
X6305Y4847D01*
X6249Y4714D01*
X6195Y4847D01*
X6047Y4994D01*
X5854Y5074D01*
X5646Y5075D01*
X5453Y4995D01*
X5305Y4847D01*
X5225Y4654D01*
X5224Y4446D01*
X5304Y4253D01*
X5452Y4105D01*
X5524Y4075D01*
X5425Y4075D01*
X5333Y4037D01*
X5263Y3966D01*
X5225Y3874D01*
X5224Y3775D01*
X5224Y3225D01*
X5262Y3133D01*
X5333Y3063D01*
X5425Y3025D01*
X5524Y3024D01*
X6074Y3024D01*
X6166Y3062D01*
X6236Y3133D01*
X6249Y3164D01*
X6262Y3133D01*
X6333Y3063D01*
X6425Y3025D01*
X6524Y3024D01*
X6637Y3025D01*
X6700Y3087D01*
X6700Y3500D01*
X6692Y3500D01*
X6692Y3600D01*
X6700Y3600D01*
X6700Y3607D01*
X6800Y3607D01*
X6800Y3600D01*
X7212Y3600D01*
X7275Y3662D01*
X7275Y3874D01*
X7237Y3966D01*
X7166Y4036D01*
X7074Y4074D01*
X6975Y4075D01*
X6975Y4075D01*
X7047Y4104D01*
X7194Y4252D01*
X7274Y4445D01*
X7275Y4653D01*
X7275Y2240D01*
X7275Y2240D01*
X7275Y3225D01*
X7275Y3437D01*
X7212Y3500D01*
X6800Y3500D01*
X6800Y3087D01*
X6862Y3025D01*
X6975Y3024D01*
X7074Y3025D01*
X7166Y3063D01*
X7237Y3133D01*
X7275Y3225D01*
X7275Y2240D01*
X6784Y1750D01*
X6698Y1750D01*
X6590Y1858D01*
X6369Y1949D01*
X6131Y1950D01*
X5910Y1858D01*
X5741Y1690D01*
X5650Y1469D01*
X5649Y1231D01*
X5741Y1010D01*
X5815Y935D01*
X5758Y912D01*
X5688Y841D01*
X5650Y749D01*
X5649Y650D01*
X5650Y462D01*
X5712Y400D01*
X6200Y400D01*
X6200Y407D01*
X6300Y407D01*
X6300Y400D01*
X6787Y400D01*
X6850Y462D01*
X6850Y650D01*
X6849Y749D01*
X6811Y841D01*
X6741Y912D01*
X6684Y935D01*
X6698Y950D01*
X6950Y950D01*
X6950Y950D01*
X7077Y975D01*
X7103Y980D01*
X7103Y980D01*
X7232Y1067D01*
X8265Y2100D01*
X9061Y2100D01*
X9018Y2087D01*
X8945Y1881D01*
X8956Y1663D01*
X9018Y1512D01*
X9114Y1484D01*
X9429Y1800D01*
X9423Y1805D01*
X9494Y1876D01*
X9500Y1870D01*
X9505Y1876D01*
X9576Y1805D01*
X9570Y1800D01*
X9885Y1484D01*
X9981Y1512D01*
X10054Y1718D01*
X10043Y1936D01*
X9981Y2087D01*
X9938Y2100D01*
X13200Y2100D01*
X13200Y2100D01*
X13327Y2125D01*
X13353Y2130D01*
X13353Y2130D01*
X13482Y2217D01*
X13632Y2367D01*
X13632Y2367D01*
X13690Y2453D01*
X13719Y2496D01*
X13719Y2496D01*
X13749Y2650D01*
X13750Y2650D01*
X13750Y4131D01*
X13765Y4125D01*
X13934Y4124D01*
X14090Y4189D01*
X14210Y4308D01*
X14274Y4465D01*
X14275Y4634D01*
X14210Y4790D01*
X14175Y4825D01*
X14175Y5354D01*
X14245Y5325D01*
X14453Y5324D01*
X14647Y5404D01*
X14794Y5552D01*
X14850Y5685D01*
X14904Y5553D01*
X15052Y5405D01*
X15245Y5325D01*
X15453Y5324D01*
X15525Y5354D01*
X15525Y5126D01*
X15489Y5091D01*
X15425Y4934D01*
X15424Y4765D01*
X15489Y4609D01*
X15608Y4489D01*
X15765Y4425D01*
X15850Y4425D01*
X15934Y4424D01*
X16025Y4462D01*
X16025Y3669D01*
X15980Y3603D01*
X15950Y3450D01*
X15980Y3296D01*
X16067Y3167D01*
X16950Y2284D01*
X16950Y192D01*
X16905Y147D01*
X16849Y14D01*
X16795Y147D01*
X16647Y294D01*
X16454Y374D01*
X16246Y375D01*
X16053Y295D01*
X15905Y147D01*
X15849Y14D01*
X15795Y147D01*
X15647Y294D01*
X15454Y374D01*
X15246Y375D01*
X15053Y295D01*
X14905Y147D01*
X14849Y14D01*
X14795Y147D01*
X14647Y294D01*
X14454Y374D01*
X14246Y375D01*
X14053Y295D01*
X13905Y147D01*
X13849Y14D01*
X13795Y147D01*
X13647Y294D01*
X13454Y374D01*
X13246Y375D01*
X13053Y295D01*
X12905Y147D01*
X12825Y-45D01*
X12824Y-253D01*
X12904Y-447D01*
X12914Y-457D01*
X12796Y-480D01*
X12796Y-480D01*
X12796Y-480D01*
X12667Y-567D01*
X12267Y-967D01*
X12180Y-1096D01*
X12175Y-1122D01*
X12150Y-1250D01*
X12150Y-2205D01*
X12125Y-2265D01*
X12124Y-2434D01*
X12189Y-2590D01*
X12308Y-2710D01*
X12465Y-2774D01*
X12634Y-2775D01*
X12790Y-2710D01*
X12910Y-2591D01*
X12974Y-2434D01*
X12975Y-2304D01*
X13054Y-2497D01*
X13202Y-2644D01*
X13395Y-2724D01*
X13603Y-2725D01*
X13797Y-2645D01*
X13944Y-2497D01*
X14000Y-2364D01*
X14054Y-2497D01*
X14202Y-2644D01*
X14395Y-2724D01*
X14603Y-2725D01*
X14797Y-2645D01*
X14944Y-2497D01*
X15000Y-2364D01*
X15054Y-2497D01*
X15202Y-2644D01*
X15395Y-2724D01*
X15603Y-2725D01*
X15797Y-2645D01*
X15944Y-2497D01*
X16000Y-2364D01*
X16054Y-2497D01*
X16202Y-2644D01*
X16395Y-2724D01*
X16603Y-2725D01*
X16797Y-2645D01*
X16944Y-2497D01*
X17024Y-2304D01*
X17025Y-2096D01*
X16945Y-1903D01*
X16797Y-1755D01*
X16604Y-1675D01*
X16396Y-1674D01*
X16203Y-1754D01*
X16055Y-1902D01*
X15999Y-2035D01*
X15945Y-1903D01*
X15797Y-1755D01*
X15604Y-1675D01*
X15396Y-1674D01*
X15203Y-1754D01*
X15055Y-1902D01*
X14999Y-2035D01*
X14945Y-1903D01*
X14797Y-1755D01*
X14604Y-1675D01*
X14396Y-1674D01*
X14203Y-1754D01*
X14055Y-1902D01*
X13999Y-2035D01*
X13945Y-1903D01*
X13797Y-1755D01*
X13604Y-1675D01*
X13396Y-1674D01*
X13203Y-1754D01*
X13055Y-1902D01*
X12975Y-2095D01*
X12974Y-2265D01*
X12950Y-2205D01*
X12950Y-1415D01*
X13115Y-1250D01*
X16650Y-1250D01*
X16650Y-1249D01*
X16777Y-1224D01*
X16803Y-1219D01*
X16803Y-1219D01*
X16932Y-1132D01*
X17390Y-675D01*
X17453Y-675D01*
X17647Y-595D01*
X17794Y-447D01*
X17850Y-314D01*
X17904Y-447D01*
X18052Y-594D01*
X18245Y-674D01*
X18453Y-675D01*
X18647Y-595D01*
X18794Y-447D01*
X18850Y-314D01*
X18904Y-447D01*
X19052Y-594D01*
X19245Y-674D01*
X19453Y-675D01*
X19647Y-595D01*
X19794Y-447D01*
X19850Y-314D01*
X19904Y-447D01*
X20052Y-594D01*
X20245Y-674D01*
X20453Y-675D01*
X20647Y-595D01*
X20794Y-447D01*
X20850Y-314D01*
X20904Y-447D01*
X21052Y-594D01*
X21245Y-674D01*
X21453Y-675D01*
X21647Y-595D01*
X21794Y-447D01*
X21850Y-314D01*
X21904Y-447D01*
X22052Y-594D01*
X22245Y-674D01*
X22453Y-675D01*
X22647Y-595D01*
X22794Y-447D01*
X22850Y-314D01*
X22904Y-447D01*
X23052Y-594D01*
X23245Y-674D01*
X23453Y-675D01*
X23647Y-595D01*
X23794Y-447D01*
X23850Y-314D01*
X23904Y-447D01*
X24052Y-594D01*
X24245Y-674D01*
X24453Y-675D01*
X24647Y-595D01*
X24794Y-447D01*
X24850Y-314D01*
X24904Y-447D01*
X25052Y-594D01*
X25245Y-674D01*
X25453Y-675D01*
X25647Y-595D01*
X25794Y-447D01*
X25824Y-375D01*
X25824Y-375D01*
X25825Y-474D01*
X25863Y-566D01*
X25933Y-637D01*
X26025Y-675D01*
X26237Y-675D01*
X26300Y-612D01*
X26300Y-200D01*
X26292Y-200D01*
X26292Y-100D01*
X26300Y-100D01*
X26300Y312D01*
X26237Y375D01*
X26025Y375D01*
X25933Y337D01*
X25863Y266D01*
X25825Y174D01*
X25824Y75D01*
X25824Y75D01*
X25795Y147D01*
X25685Y257D01*
X25873Y425D01*
X27950Y425D01*
X28074Y449D01*
X28074Y449D01*
X28179Y520D01*
X28979Y1320D01*
X28979Y1320D01*
X28979Y1320D01*
X29050Y1425D01*
X29050Y1425D01*
X29070Y1525D01*
X29075Y1549D01*
X29075Y-2040D01*
X28845Y-1810D01*
X28459Y-1650D01*
X28042Y-1649D01*
X27656Y-1809D01*
X27360Y-2104D01*
X27200Y-2490D01*
X27199Y-2907D01*
X27359Y-3294D01*
X27654Y-3589D01*
X27849Y-3670D01*
X26875Y-3670D01*
X26875Y-375D01*
X26875Y75D01*
X26874Y174D01*
X26836Y266D01*
X26766Y337D01*
X26674Y375D01*
X26462Y375D01*
X26400Y312D01*
X26400Y-100D01*
X26812Y-100D01*
X26875Y-37D01*
X26875Y75D01*
X26875Y-375D01*
X26875Y-262D01*
X26812Y-200D01*
X26400Y-200D01*
X26400Y-612D01*
X26462Y-675D01*
X26674Y-675D01*
X26766Y-637D01*
X26836Y-566D01*
X26874Y-474D01*
X26875Y-375D01*
X26875Y-3670D01*
X10050Y-3670D01*
X10050Y-450D01*
X10050Y149D01*
X10012Y241D01*
X9941Y311D01*
X9849Y349D01*
X9815Y349D01*
X9815Y1414D01*
X9500Y1729D01*
X9184Y1414D01*
X9212Y1318D01*
X9418Y1245D01*
X9636Y1256D01*
X9787Y1318D01*
X9815Y1414D01*
X9815Y349D01*
X9750Y350D01*
X9150Y350D01*
X9058Y312D01*
X8988Y241D01*
X8950Y149D01*
X8949Y50D01*
X8949Y-549D01*
X8987Y-641D01*
X9058Y-711D01*
X9150Y-749D01*
X9249Y-750D01*
X9849Y-750D01*
X9941Y-712D01*
X10011Y-641D01*
X10049Y-549D01*
X10050Y-450D01*
X10050Y-3670D01*
X6850Y-3670D01*
X6850Y-531D01*
X6758Y-310D01*
X6684Y-235D01*
X6741Y-212D01*
X6811Y-141D01*
X6849Y-49D01*
X6850Y49D01*
X6850Y237D01*
X6787Y300D01*
X6300Y300D01*
X6300Y292D01*
X6200Y292D01*
X6200Y300D01*
X5712Y300D01*
X5650Y237D01*
X5649Y49D01*
X5650Y-49D01*
X5688Y-141D01*
X5758Y-212D01*
X5815Y-235D01*
X5741Y-309D01*
X5650Y-530D01*
X5649Y-768D01*
X5741Y-989D01*
X5909Y-1158D01*
X6130Y-1249D01*
X6368Y-1250D01*
X6589Y-1158D01*
X6758Y-990D01*
X6849Y-769D01*
X6850Y-531D01*
X6850Y-3670D01*
X5650Y-3670D01*
X5844Y-3590D01*
X6139Y-3295D01*
X6299Y-2909D01*
X6300Y-2492D01*
X6140Y-2106D01*
X5845Y-1810D01*
X5459Y-1650D01*
X5042Y-1649D01*
X4656Y-1809D01*
X4360Y-2104D01*
X4279Y-2299D01*
X4279Y15649D01*
X4359Y15456D01*
X4654Y15160D01*
X5040Y15000D01*
X5457Y14999D01*
X5844Y15159D01*
X6139Y15454D01*
X6299Y15840D01*
X6300Y16257D01*
X6140Y16644D01*
X5845Y16939D01*
X5650Y17020D01*
X27849Y17020D01*
X27656Y16940D01*
X27360Y16645D01*
X27200Y16259D01*
X27199Y15842D01*
X27359Y15456D01*
X27654Y15160D01*
X28040Y15000D01*
X28457Y14999D01*
X28844Y15159D01*
X29139Y15454D01*
X29220Y15649D01*
X29220Y-2299D01*
M02*
